<?xml version="1.0" encoding="utf-8"?>
<!-- Generator: Adobe Illustrator 26.3.1, SVG Export Plug-In . SVG Version: 6.00 Build 0)  -->
<svg version="1.1" id="Layer_1" xmlns="http://www.w3.org/2000/svg" xmlns:xlink="http://www.w3.org/1999/xlink" x="0px" y="0px"
	 viewBox="0 0 300 300" style="enable-background:new 0 0 300 300;" xml:space="preserve">
<style type="text/css">
	.st0{fill:#009640;}
</style>
<g>
	<path class="st0" d="M205.26,116.56c-0.32,1.34-0.09,2.21-0.05,3.08c0.16,3.65,0.36,7.3,0.53,10.95c0.04,0.93,0.35,1.72,0.98,2.45
		c5.34,6.13,9.72,12.98,14.54,19.51c1.13,1.53,1.45,3.4,1.64,5.25c0.12,1.14,0.67,1.57,1.76,1.56c1.7-0.02,3.41-0.05,5.11,0.02
		c1.46,0.06,2.04-0.52,2.09-2.01c0.19-5.35,0.49-10.7,0.71-16.06c0.66-15.56,1.31-31.12,1.94-46.68c0.03-0.82,0.45-2.12-0.29-2.36
		c-0.95-0.3-1.21,1.08-1.68,1.77c-3.5,5.14-7.17,10.14-11.34,14.76c-1.21,1.34-2.49,2.61-3.99,3.63c-0.68,0.46-1.43,0.87-2.21,0.28
		c-0.73-0.54-0.57-1.35-0.37-2.08c0.94-3.31,2.67-6.26,4.42-9.18c4.11-6.84,8.71-13.33,13.99-19.32c1.05-1.19,1.13-4.19,0.19-5.78
		c-4.82-8.18-8.76-16.77-11.75-25.79c-0.6-1.81-1.13-3.64-1.33-5.54c-0.09-0.89-0.19-1.91,0.84-2.36c0.97-0.42,1.61,0.32,2.18,0.94
		c2.86,3.15,4.81,6.89,6.75,10.62c3.33,6.4,6.25,13,8.49,19.87c0.53,1.63,3.28,3.48,5.13,3.47c9.09-0.03,18.1,0.82,27.01,2.67
		c1.97,0.41,3.9,0.92,5.74,1.73c0.81,0.36,1.77,0.75,1.68,1.87c-0.09,1.12-1.09,1.35-1.96,1.56c-1.81,0.43-3.67,0.54-5.52,0.57
		c-9.2,0.15-18.3-0.76-27.32-2.57c-2.59-0.52-2.82-0.35-2.75,2.26c0.43,14.82,0.96,29.63,1.77,44.43
		c0.49,8.85,0.84,17.71,1.24,26.56c0.12,2.68,0.14,2.72,2.88,2.73c0.8,0,1.6,0,2.4,0c2.53-0.01,2.66-0.14,2.67-2.61
		c0.01-2,0-4.01,0-6.01c0-15.93,0-31.85,0-47.78c0-0.6,0-1.2,0.03-1.8c0.11-2.3,1.02-3.25,3.32-3.43
		c5.39-0.41,10.79-0.81,16.18-1.21c4.05-0.3,8.09-0.55,12.13-0.9c1.9-0.16,3.06,0.61,4.3,2.06c2.06,2.41,2.46,5.02,2.45,8.04
		c-0.07,34.76-0.04,69.52-0.02,104.28c0,1.74-0.2,3.31-1.37,4.77c-1.71,2.12-3.63,3.06-6.47,2.81c-8.73-0.76-17.48-1.26-26.22-1.87
		c-0.35-0.02-0.7-0.06-1.05-0.11c-2.45-0.31-3.25-1.14-3.26-3.61c-0.03-5.71-0.01-11.42-0.03-17.13c0-0.66,0.17-1.38-0.36-2.07
		c-0.62,0.53-0.59,1.21-0.71,1.81c-0.93,4.48-2.17,8.85-4.23,12.96c-1.02,2.03-2.22,3.93-3.84,5.53c-0.59,0.58-0.92,1.11-0.37,1.95
		c0.57,0.88-0.01,1.47-0.82,1.69c-2.71,0.74-5.44,0.74-8.17,0.09c-0.59-0.14-1.19-0.46-1.07-1.23c0.11-0.66,0.69-0.77,1.25-0.88
		c0.57-0.11,1.2,0.08,2.04-0.41c-2.68-0.18-5.06-0.08-7.43,0.02c-2.11,0.09-4.16,0.17-5.68,2.06c-0.66,0.83-1.87,0.9-2.93,0.98
		c-3.45,0.28-6.91,0.16-10.35-0.15c-2.12-0.19-3.46-1.56-4.34-3.31c-0.73-1.44-1.78-2.03-3.32-2.09c-2.46-0.09-4.91-0.12-7.34,0.28
		c-3.38,0.56-6.77,0.77-10.17,0.19c-0.75-0.13-1.5-0.11-2.24,0.04c-4.7,0.99-9.41,1.95-14.11,2.97c-2.27,0.49-3.83,2.29-5.8,3.35
		c-0.34,0.18-0.46,0.86-0.6,1.33c-1.26,4.03-2.78,7.92-5.3,11.38c-2.02,2.78-4.68,4.18-8.06,4.17c-4.46-0.02-8.92-0.24-13.34-0.84
		c-2.56-0.35-4.48-1.9-5.97-3.97c-1-1.39-1.79-2.9-2.43-4.48c-0.42-1.04-1.1-1.49-2.19-1.42c-9.44,0.65-18.49-1.79-27.61-3.58
		c-1.53-0.3-3.06-0.54-4.61-0.57c-12.02-0.25-24.03-0.72-36.03-1.29c-2-0.09-4.03-0.05-5.99-0.38c-2.3-0.38-3.83,0.25-5.18,2.22
		c-2.52,3.66-6.19,5.23-10.63,5.02c-2.55-0.12-5.1-0.17-7.66-0.2c-2.43-0.03-4.61-0.78-6.67-2.03c-2.3-1.39-3.94-3.39-5.27-5.65
		c-0.58-0.98-1.26-1.73-2.36-2.18c-1.94-0.8-2.99-2.44-3.72-4.32c-1.35-3.5-1.76-7.19-2.2-10.86c-0.7-5.78-0.1-11.5,1.04-17.17
		c0.21-1.02,0.5-2.06,0.92-3.01c0.95-2.16,1.67-4.37,2.24-6.66c0.62-2.46,2.4-4.37,3.79-6.43c2.16-3.2,4.58-6.2,7.35-8.91
		c4.54-4.44,10.34-6.21,16.26-7.6c2.97-0.7,5.49-2.02,7.82-3.92c9.42-7.67,19.33-14.63,30.18-20.15c8.54-4.34,17.61-7.28,27-8.96
		c20.07-3.6,40.33-3.98,60.64-2.83c6.86,0.39,13.69,0.95,20.35,2.79c4.76,1.31,9.32,3.07,13.45,5.82c1.64,1.09,1.93,0.96,2.02-0.93
		c0.36-7.45,0.71-14.9,1.03-22.36c0.1-2.3-0.41-2.8-2.68-3.1c-7.07-0.93-14.02-2.37-20.76-4.73c-1.28-0.45-2.53-0.96-3.69-1.67
		c-0.61-0.37-1.24-0.82-1.07-1.64c0.19-0.9,0.98-1.07,1.75-1.12c3.58-0.24,7.09,0.3,10.6,0.92c4.89,0.86,9.7,2.02,14.42,3.57
		c1.65,0.54,3.51-0.22,4.68-1.81c4.11-5.59,8.77-10.68,13.95-15.29c1.2-1.06,2.41-2.13,3.84-2.87c0.67-0.35,1.43-0.71,2.09-0.08
		c0.67,0.63,0.36,1.43,0.04,2.1c-1.57,3.23-3.85,5.97-6.13,8.7c-3.15,3.77-6.5,7.35-10.19,10.6c-1.62,1.43-1.98,3.52-1.12,5.56
		c3.02,7.18,5.42,14.54,6.55,22.28c0.11,0.74,0.11,1.5,0.07,2.24c-0.04,0.61-0.29,1.2-0.95,1.41c-0.69,0.22-1.15-0.22-1.54-0.69
		c-1.37-1.64-2.11-3.62-2.99-5.53C206.16,118.68,205.8,117.82,205.26,116.56z M154.18,228.55c-0.07,0.05-0.14,0.11-0.19,0.18
		c-2.87,1.98-5.42,1.7-7.72-0.88c-1.32-1.48-2.16-3.23-2.85-5.07c-1.94-5.13-2.5-10.5-2.64-15.92c-0.17-6.55,0.56-13,2.95-19.16
		c0.96-2.48,2.15-4.86,4.23-6.64c1.9-1.63,3.88-1.79,6.1-0.64c1.66,0.86,2.45,2.43,3.43,3.87c1.06,2.02,1.6,4.27,2.63,6.31
		c-0.67-2.45-0.98-5.02-2.3-7.26c-0.33-0.67-0.67-1.34-1-2.01c-1.79-3.54-4.34-5.84-8.63-5.42c-0.74,0.07-1.51,0.07-2.25-0.01
		c-1.69-0.19-2.67,0.55-3.4,2.06c-2.27,4.67-3.74,9.6-4.81,14.65c-1.73,8.17-1.95,16.48-2.09,24.78c-0.08,4.56-1.45,6.2-5.88,7.04
		c-3.48,0.66-3.45,0.64-1.76,3.78c1.79,3.34,4.36,5.4,8.29,5.53c3.7,0.13,7.39,0.4,11.09,0.5c3.14,0.09,5.62-1.21,7.28-3.94
		c0.85-1.41,1.68-2.84,2.51-4.26c1.39-2,1.75-4.36,2.37-6.64c-0.82,2.19-1.94,4.23-2.94,6.32c-0.4,0.53-0.8,1.07-1.2,1.6
		c-0.07,0.05-0.12,0.11-0.17,0.18c-0.04,0.05-0.09,0.1-0.13,0.14c-0.06,0.04-0.11,0.1-0.16,0.16c-0.05,0.05-0.09,0.1-0.15,0.15
		c-0.06,0.04-0.11,0.09-0.15,0.15c-0.05,0.05-0.09,0.1-0.15,0.15c-0.06,0.04-0.11,0.09-0.16,0.16
		C154.28,228.46,154.23,228.51,154.18,228.55z M181.26,122.94L181.26,122.94c-0.05-0.02-0.08-0.05-0.12-0.08
		C181.18,122.89,181.22,122.91,181.26,122.94z M217.42,169.62c1.97-2.08,4.1-2.18,6.43-0.43c-0.54-1.42-1.3-2.59-2.79-2.83
		c-1.51-0.24-2.52,0.75-3.32,1.89c-0.25,0.35-0.31,0.83-0.46,1.25C217.2,169.68,217.23,169.74,217.42,169.62z M137.38,188.46
		c0.01-0.12,0.02-0.25,0.04-0.37c0.09-0.27,0.18-0.53,0.27-0.8c0.01-0.14,0.02-0.27,0.03-0.41c0.08-0.18,0.16-0.35,0.24-0.53
		c0.02-0.12,0.04-0.25,0.07-0.37c0.2-0.62,0.4-1.23,0.6-1.85c1.56-4.93,3.77-9.5,7.59-13.1c2.74-2.59,6.09-2.6,8.94-0.13
		c0.71,0.62,1.34,1.35,1.94,2.08c1.72,2.08,2.47,4.68,3.7,7.01c0.01,0.12,0.03,0.24,0.04,0.35c0.05,0.22,0.1,0.44,0.15,0.66
		c0.03,0.09,0.08,0.17,0.14,0.24c0.1,0.29,0.2,0.59,0.31,0.88c0.42,2.01,0.84,4.02,1.26,6.03c-0.01-2.05,0.09-4.11-0.81-6
		c-0.04-0.19-0.09-0.37-0.13-0.56c-0.01-0.12-0.01-0.25-0.02-0.37c-0.05-0.31-0.11-0.63-0.16-0.94c-0.05-0.09-0.09-0.18-0.14-0.27
		c-0.15-0.61-0.3-1.21-0.45-1.82c-0.04-0.09-0.09-0.18-0.15-0.26c-0.03-0.11-0.06-0.21-0.08-0.32c-0.08-0.19-0.15-0.37-0.23-0.56
		c-0.91-1.83-1.74-3.71-2.75-5.48c-2.73-4.78-7.59-6.07-11.42-2.85c-4.49,3.78-6.66,8.98-8.1,14.52c-0.14,0.33-0.28,0.66-0.43,0.99
		c-0.04,0.21-0.08,0.41-0.12,0.62c-0.02,0.12-0.03,0.25-0.05,0.37c-0.09,0.27-0.17,0.55-0.26,0.82c-0.08,0.2-0.15,0.4-0.23,0.6
		c-0.02,0.2-0.05,0.4-0.07,0.6c-0.01,0.12-0.02,0.24-0.03,0.36c-0.06,0.28-0.13,0.57-0.19,0.85c-0.17,0.47-0.4,0.92-0.5,1.4
		c-1.27,5.89-1.91,11.85-2.32,17.86c-0.25,3.69-0.15,7.41-0.7,11.09c-0.14,0.95-0.65,1.86-0.51,3.04c1.12-0.54,1.45-1.42,1.53-2.36
		c0.14-1.79,0.24-3.6,0.26-5.4c0.04-6.27,0.36-12.51,1.48-18.69C136.51,193.09,136.95,190.78,137.38,188.46L137.38,188.46z
		 M8.73,210.74c0.71,2.73,2.36,4.45,5.22,4.91c1.63,0.26,3.24,0.66,4.88,0.86c2.04,0.25,4.1,0.35,6.08-0.4
		c0.4-0.15,1.04-0.27,1-0.77c-0.04-0.6-0.71-0.4-1.11-0.45c-3.83-0.42-7.63-1.02-11.41-1.81c-1.8-0.38-3.25-1.25-4.21-2.86
		c-0.12-0.29-0.16-0.87-0.57-0.63C8.13,209.87,8.55,210.36,8.73,210.74z M150.31,181.26c-1.67,0.26-2.52,1.56-3.36,2.79
		c-1.66,2.43-2.63,5.17-3.39,7.98c-0.28,1.06-0.72,2.13,0.71,2.81c0.45,0.21,0.45,0.87,0.5,1.37c0.12,1.04,0.21,2.09,0.3,3.14
		c0.09,0.98,0.42,1.89,1.52,1.9c1.05,0.01,1.26-0.98,1.49-1.81c0.05-0.19,0.06-0.4,0.09-0.59c0.71-5.87,1.41-11.73,2.12-17.6
		L150.31,181.26z M115.41,188.37c1.46,0.28,2.61,1,3.28,2.36c0.42,0.86,0.85,0.8,1.45,0.17c2.58-2.69,5.64-4.76,8.72-6.8
		c0.39-0.26,0.93-0.39,1.16-1.24c-9.47,1.43-18.81,2.83-28.14,4.24c-0.1,0.05-0.2,0.11-0.3,0.16c-0.5,0.04-1,0.07-1.5,0.11
		c-0.2,0.07-0.39,0.13-0.59,0.2c-0.37,0.04-0.75,0.08-1.12,0.13c-1.22,0.17-2.43,0.33-3.65,0.5c0.01,0.07,0.03,0.15,0.04,0.22
		c1.19,0,2.38,0,3.58,0c2.1-0.02,4.21-0.04,6.31-0.05c1.2,0.07,2.41,0.15,3.59-0.19c2.19,0,4.38,0,6.57,0
		C115.01,188.24,115.21,188.3,115.41,188.37z M239.87,109.7c-0.05-0.23-0.05-0.53-0.37-0.49c-0.11,0.01-0.19,0.28-0.28,0.44
		c-0.34,1.84-0.31,3.68,0.05,5.51c0,3.17-0.08,6.35,0.24,9.51c-0.35,2.45-0.33,4.89,0.04,7.34c0,9.79,0,19.59,0,29.38
		c-0.35,1.94-0.39,3.89-0.04,5.84c0.01,0.89,0.45,1.12,1.28,0.89c1.49-0.42,1.83-1.47,1.76-2.88c-0.55-11.7-1.07-23.39-1.6-35.09
		c0.09-0.71,0.06-1.42-0.19-2.1c-0.03-1.31-0.07-2.61-0.1-3.92c0.08-0.91,0.1-1.81-0.21-2.69c-0.03-1.11-0.06-2.22-0.1-3.33
		c0.09-0.81,0.08-1.61-0.18-2.39c-0.05-1.51-0.09-3.02-0.14-4.53C240.1,110.67,240.05,110.18,239.87,109.7z M224.24,178.22
		c0.17,0.59,0.19,1.25,0.82,1.84c0.1-0.91-0.24-1.51-0.53-2.12c-0.25-0.81-0.51-1.63-0.76-2.44c-0.04-0.08-0.09-0.15-0.15-0.21
		c-1.52-2.7-2.27-3.12-5.17-2.77c-2.16,0.26-1.88,2.29-2.54,3.64c-0.11,0.22-0.13,0.48-0.19,0.72c-1.81,6.95-2.51,14.08-3.2,21.2
		c-0.22,2.24-0.21,4.5-1.04,6.65c-0.61,1.59-1.66,2.58-3.43,2.71c-1.05,0.07-2.09,0.21-3.14,0.27c-0.96,0.05-1.4,0.44-1.13,1.44
		c0.47,1.75,1.08,3.44,2.14,4.93c0.65,0.91,1.42,1.79,2.6,1.89c3.79,0.32,7.6,0.43,11.39,0.01c1.62-0.18,2.9-1.74,3.07-3.29
		c-2.8,1.22-4.09,0.74-5.49-2.06c-0.63-1.26-1.08-2.58-1.42-3.95c-1.57-6.45-1.73-12.97-0.94-19.53c0.39-3.24,0.98-6.44,2.54-9.36
		c1.62-3.02,3.56-3.24,5.79-0.71c0.04,0.08,0.1,0.14,0.17,0.2C223.84,177.59,224.04,177.9,224.24,178.22z M173.6,119.84
		c2.34,0.25,4.7,0.38,7.02,0.76c8.56,1.38,16.05,4.58,21.63,11.68c4.75,6.05,9.36,12.11,12.26,19.33c0.95,2.37,1.24,2.37,3.65,1.91
		c1.63-0.31,1.78-0.69,0.8-2.06c-2.62-3.66-5.28-7.31-7.89-10.98c-2.97-4.18-6.26-8.1-10.03-11.55c-7.79-7.12-17.3-10.47-27.6-11.25
		c-8.46-0.64-15.3,2.52-19.73,10.26c-3.26,5.7-6.6,11.35-9.4,17.28c-1.18,2.5-2.96,3.7-5.67,3.97c-12.81,1.23-25.67,1.89-38.51,2.59
		c-12.21,0.66-24.43,0.72-36.65,0.54c-5.66-0.08-11.4,0.39-16.93-0.69c-3.35-0.66-6.2,0.09-9.23,0.79c-2.83,0.66-5.58,1.6-8.3,2.63
		c-2.47,0.93-4.64,2.34-6.57,4.14c-0.32,0.3-0.82,0.52-0.71,1.06c0.12,0.56,0.67,0.54,1.09,0.64c3.36,0.8,6.73,1.58,10.09,2.37
		c0.98,0.23,1.95,0.47,2.77,1.1c1.67,1.3,1.66,2.71-0.14,3.81c-2.82,1.73-5.68,3.37-8.53,5.05c-1.52,0.9-3.17,1.17-4.92,1
		c-3-0.29-5.97-0.71-8.8-1.81c-0.94-0.37-1.45-0.02-1.77,0.78c-0.42,1.04,0.41,1.2,1.08,1.37c1.07,0.27,2.15,0.49,3.23,0.69
		c14.05,2.54,28.26,3.08,42.49,3.23c16.48,0.17,32.95-0.04,49.4-1.16c10.35-0.71,20.66-1.68,30.78-4.12
		c1.83-0.44,3.36-1.07,4.43-2.74c0.58-0.91,1.42-1.68,2.26-2.39c2.85-2.43,5.97-3.18,9.43-1.3c0.77,0.42,1.5,0.37,2.31,0.11
		c1.86-0.59,3.72-1.18,5.62-1.65c1.29-0.31,1.76-0.91,1.45-2.23c-0.59-2.49-0.87-5.04-0.8-7.6c0.05-1.62-0.69-2.28-2.21-2.62
		c-3.37-0.76-6.71-1.66-10.05-2.53c-1.75-0.46-2.07-1.06-1.41-2.72c0.71-1.77,1.48-3.51,2.26-5.24c2.64-5.85,5.55-11.54,9.53-16.64
		C164.49,121.56,168.52,119.71,173.6,119.84z M165.17,117.07c-0.4-0.52-0.84-0.41-1.21-0.43c-18.99-1.09-37.93-0.81-56.78,1.93
		c-9.96,1.45-19.6,4.16-28.73,8.4c-11.65,5.41-22.08,12.76-32.04,20.79c-0.72,0.58-2.17,1.01-1.76,2.11
		c0.35,0.93,1.76,0.67,2.73,0.74c6.9,0.48,13.81,0.37,20.71,0.51c14.62,0.28,29.23-0.33,43.82-1.21c8.89-0.54,17.78-1.07,26.66-1.93
		c2.32-0.22,3.71-1.32,4.68-3.38c2.59-5.48,5.64-10.72,8.61-16c2.96-5.26,6.77-9.41,12.74-11.18
		C164.77,117.37,164.92,117.23,165.17,117.07z M86.63,216.78c0.33,1.12,0.96,1.08,1.54,1.11c7.65,0.4,15.31,0.43,22.98,0.31
		c1.94-0.03,3.32-0.99,4.16-2.72c0.76-1.54,1.17-3.2,1.47-4.88c0.91-5.04,1.12-10.14,1.14-15.26c0.02-5.23-0.76-6.04-5.99-5.96
		c-11.86,0.18-23.73,0.31-35.59,0.63c-18.61,0.5-37.13-0.55-55.59-2.96c-3.17-0.41-6.34-0.98-9.56-0.95
		c-1.68,0.02-2.37,0.6-2.42,2.21c-0.2,6.62-0.01,13.22,1.16,19.75c0.36,2.02,1.48,3.33,3.57,3.75c3.83,0.77,7.68,1.43,11.57,1.81
		c0.87,0.08,1.75,0.06,2.63-0.36c-0.47-0.58-1.01-0.47-1.48-0.55c-3.46-0.58-6.92-1.1-10.37-1.73c-2.77-0.51-3.97-1.95-4.12-4.73
		c-0.1-1.81,0.3-2.24,2.16-2.1c4.54,0.33,9.08,0.71,13.63,1.01c11.24,0.75,22.47,1.58,33.72,2.16c13,0.67,26.01,1.11,39.01,1.66
		c3.65,0.15,7.3,0.33,10.95,0.5c1,0.05,1.92,0.26,2.26,1.36c0.6,1.96-1.14,5.03-3.17,5.47c-1.07,0.23-2.18,0.32-3.28,0.34
		c-3.96,0.07-7.91,0.09-11.87,0.11C92.31,216.79,89.47,216.78,86.63,216.78z M95.28,219.73c2,0.74,3.98,0.94,5.9,1.35
		c8.09,1.74,16.23,3.03,24.57,2.53c4.42-0.26,6.13-1.56,6.56-5.92c0.32-3.23,0.37-6.5,0.58-9.74c0.74-11.14,2.18-22.13,6.9-32.42
		c0.16-0.35,0.49-0.73,0.16-1.11c-0.32-0.37-0.76-0.12-1.13-0.03c-2.87,0.71-5.76,1.31-8.68,1.77c-16.66,2.66-33.48,3.19-50.3,3.48
		c-14.27,0.24-28.54,0.3-42.79-0.71c-8.25-0.58-16.46-1.37-24.56-3.09c-0.62-0.13-1.35-0.46-1.75,0.31
		c-0.42,0.81-0.64,1.71-0.02,2.56c0.48,0.66,1.14,1.12,1.83,1.54c1.68,1.01,3.49,1.75,5.35,2.37c3.64,1.21,7.52,1.77,10.84,3.92
		c0.39,0.25,0.95,0.3,1.45,0.35c9.41,0.97,18.82,1.99,28.31,1.95c7.81-0.04,15.62-0.03,23.44-0.07c0.95,0,1.91-0.05,2.84-0.19
		c15.64-2.4,31.27-4.82,46.92-7.19c0.89-0.13,2.28-0.94,2.67,0.24c0.33,0.99-1.19,1.26-1.95,1.73c-3.96,2.46-7.94,4.88-11.22,8.25
		c-1.24,1.27-1.99,2.67-1.94,4.54c0.05,1.95-0.1,3.9-0.24,5.85c-0.32,4.19-0.61,8.4-1.88,12.45c-1.11,3.55-3.03,5-6.71,5.02
		c-4.46,0.03-8.91-0.01-13.37,0C96.51,219.44,95.95,219.3,95.28,219.73z M194.79,168.74c0-2.5,0-5,0-7.51
		c0-1.28-0.59-1.63-1.83-1.35c-8.45,1.89-16.91,3.75-25.38,5.58c-1.32,0.28-1.73,0.93-1.55,2.21c0.4,2.78,0.55,5.58,0.54,8.39
		c-0.02,6.41-0.02,12.82,0.01,19.23c0.03,5.36-0.08,10.71-0.75,16.04c-0.09,0.75-0.72,1.85,0.03,2.17c0.65,0.28,1.18-0.87,1.7-1.45
		c3.15-3.5,6.55-6.59,11.19-8.07c4.34-1.38,8.63-2.94,13.08-3.95c1.33-0.3,1.82-0.87,1.5-2.31c-0.6-2.71-0.56-5.47-0.12-8.22
		C194.33,182.64,194.85,175.7,194.79,168.74z M251.39,172.4c0-3,0.01-6.01,0-9.01c-0.01-2.55-0.13-2.67-2.75-2.68
		c-1.15,0-2.3,0.01-3.46,0.02c-0.99,0.01-1.49,0.51-1.47,1.49c0.02,1.25-0.01,2.51,0.12,3.75c0.15,1.42-0.46,2.29-1.68,2.86
		c-3.04,1.4-6.11,1.34-9.2,0.17c-1.07-0.4-1.56-1.19-1.49-2.33c0.09-1.4,0.12-2.8,0.24-4.2c0.12-1.38-0.49-1.92-1.83-1.88
		c-1.6,0.04-3.21-0.02-4.81,0.02c-1.6,0.04-1.94,0.53-1.45,2.1c0.35,1.1,0.8,2.16,1.21,3.23c3.33,8.63,5.02,17.5,3.87,26.78
		c-0.24,1.94-0.69,3.85-0.82,5.79c-0.31,4.43-1.12,8.73-2.64,12.9c-0.68,1.86-0.54,2.05,1.48,1.91c3.4-0.23,6.86-0.69,10.18,0.03
		c2.81,0.61,4.36-0.61,5.85-2.51c2.01-2.56,3.3-5.49,4.31-8.54C250.29,192.6,251.33,182.57,251.39,172.4z M216.12,165.01
		c0.07-2.8-0.33-5.31-0.74-7.84c-0.21-1.33-0.75-1.78-2.12-1.48c-4.84,1.04-9.71,1.99-14.56,2.98c-2.75,0.56-2.78,0.58-2.64,3.42
		c0.45,8.98-0.11,17.91-1.54,26.78c-0.47,2.9-0.5,5.77-0.04,8.67c0.19,1.2,0.68,1.77,2.01,1.56c1.18-0.19,2.39-0.23,3.59-0.25
		c1.28-0.02,2.51,0.24,3.43,1.24c1.26,1.36,2.4,2.82,3.06,4.59c0.25,0.68,0.34,1.52,1.39,1.49c1-0.02,1.72-0.48,2.15-1.37
		c0.48-1,0.74-2.08,0.85-3.18c0.46-4.53,0.98-9.06,1.31-13.6c0.41-5.6,0.75-11.22,2.76-16.52
		C215.87,169.31,216.31,167.12,216.12,165.01z M173.39,121.18c-2.64-0.02-5.17,0.34-7.48,1.76c-1.28,0.79-1.84,1.74-1.67,3.33
		c0.63,6.02,0.97,12.06,0.82,18.12c-0.05,2.15-0.12,4.3-0.2,6.45c-0.03,0.78-0.06,1.58,0.92,1.79c2.04,0.45,4.08,1.09,6.21,0.73
		c4.83-0.81,9.67-1.62,14.5-2.45c1.93-0.33,2.02-0.49,1.49-2.36c-2.42-8.65-5.55-17.01-9.66-25.01c-0.85-1.66-1.92-2.45-3.72-2.37
		C174.19,121.19,173.79,121.18,173.39,121.18z M98.33,215.52c3.31,0.07,6.61-0.21,9.91-0.36c0.6-0.03,1.2-0.08,1.79-0.2
		c1.21-0.26,2.33-1.91,2.13-3.25c-0.22-1.45-1.45-0.94-2.3-0.99c-3-0.16-6.01-0.21-9.01-0.34c-14.7-0.66-29.41-1.34-44.11-2.02
		c-10.25-0.47-20.49-1.22-30.72-2.04c-3.79-0.3-7.59-0.54-11.39-0.79c-1.46-0.1-1.78,0.33-1.44,1.77c0.32,1.39,1.24,2.12,2.59,2.39
		c6,1.17,12.04,2.09,18.1,2.84c8.75,1.08,17.54,1.74,26.34,2.26c7.15,0.42,14.28,1.09,21.45,1.01
		C87.22,215.73,92.77,215.36,98.33,215.52z M194.97,149.44c1.21-0.26,2.9-0.79,4.63-0.94c3.38-0.31,5.47-2.15,6.78-5.11
		c0.14-0.32,0.3-0.64,0.48-0.93c0.59-0.94,0.42-1.75-0.27-2.6c-2.14-2.64-4.28-5.29-6.36-7.98c-4.05-5.24-9.75-7.63-15.87-9.32
		c-0.46-0.13-1.03-0.4-1.42,0.04c-0.43,0.48,0.07,0.93,0.28,1.35c1.33,2.74,2.76,5.44,4.02,8.22c2.31,5.11,4.17,10.39,5.73,15.78
		C193.2,148.7,193.31,149.6,194.97,149.44z M237.31,86.65c-1.26,1.07-1.31,2.25-1.35,3.46c-0.32,8.25-0.64,16.51-1,24.76
		c-0.74,16.95-1.48,33.9-2.26,50.86c-0.07,1.47,0.47,2.29,1.88,2.56c0.54,0.1,1.08,0.21,1.63,0.28c1.22,0.17,1.94-0.28,1.97-1.59
		c0.02-0.95,0.09-1.9,0.1-2.85c0.36-25.34-0.35-50.66-0.83-75.99C237.43,87.74,237.37,87.35,237.31,86.65z M285.81,156.6
		c0-18.78,0-37.55,0-56.33c0-3.41-0.29-3.66-3.73-3.4c-8.83,0.67-17.67,1.33-26.51,1.98c-2.62,0.19-2.87,0.43-2.87,3.09
		c0,36.5,0,73,0,109.5c0,0.45,0,0.9,0.03,1.35c0.07,1.12,0.63,1.73,1.8,1.77c9.21,0.36,18.38,1.2,27.57,1.8
		c3.5,0.23,3.7,0.02,3.7-3.45C285.81,194.15,285.81,175.37,285.81,156.6z M165.47,153.89c-0.94-0.09-1.06,0.52-1.07,1.24
		c-0.03,2.51,0.19,5,0.77,7.45c0.42,1.78,0.71,1.99,2.48,1.6c2.79-0.61,5.57-1.24,8.35-1.86c5.47-1.21,10.95-2.4,16.42-3.62
		c1.43-0.32,1.55-0.65,0.89-1.97c-0.62-1.25-1.31-2.48-1.83-3.78c-0.45-1.14-1.12-1.49-2.31-1.26c-2.9,0.55-5.81,1.07-8.73,1.5
		c-4.86,0.71-9.69,2.38-14.67,0.74C165.67,153.9,165.57,153.9,165.47,153.89z M169.23,213.59c0.5-0.09,1.04-0.19,1.58-0.3
		c6.66-1.38,13.32-2.78,19.89-4.53c4.3-1.15,8.57-2.4,12.85-3.62c0.81-0.23,1.58-0.47,1.02-1.64c-1.16-2.44-2.75-3.46-5.45-3.37
		c-0.85,0.03-1.71,0.05-2.54,0.19c-6.83,1.18-13.4,3.27-19.82,5.83c-3.28,1.31-5.64,3.91-7.99,6.45c-0.2,0.21-0.45,0.47-0.26,0.79
		C168.65,213.66,168.94,213.61,169.23,213.59z M162.39,142.56c0.06,0,0.13,0,0.19,0c0-1.7,0.07-3.4-0.01-5.1
		c-0.14-2.9-0.37-5.79-0.57-8.68c-0.02-0.34-0.01-0.76-0.41-0.89c-0.42-0.13-0.59,0.28-0.82,0.53c-0.16,0.19-0.31,0.39-0.45,0.6
		c-3.95,5.71-6.72,12.03-9.42,18.39c-0.41,0.97-0.09,1.52,0.9,1.77c2.95,0.76,5.91,1.52,8.85,2.3c1.14,0.3,1.75-0.06,1.74-1.28
		C162.39,147.65,162.39,145.11,162.39,142.56z M30.41,225.02c1,0,2.2-0.02,3.4,0c3.81,0.06,6.94-1.29,9.22-4.41
		c0.34-0.47,1.02-0.86,0.79-1.52c-0.25-0.69-1.02-0.5-1.59-0.55c-2.59-0.23-5.19-0.4-7.78-0.64c-4.11-0.38-8.19-1.12-12.36-0.16
		c-1.93,0.45-3.98-0.11-5.96-0.46c-0.34-0.06-0.72-0.21-0.98,0.12c-0.27,0.34-0.04,0.67,0.14,0.96c2.16,3.33,4.96,5.78,9.07,6.25
		C26.3,224.85,28.26,224.89,30.41,225.02z M286.95,156.91c0,18.12,0,36.25,0,54.37c0,0.5,0,1,0.03,1.5c0.02,0.33,0,0.75,0.48,0.81
		c0.38,0.04,0.47-0.32,0.62-0.56c0.65-1.1,0.49-2.33,0.49-3.52c0-35.3-0.02-70.6-0.04-105.89c0-0.55,0.01-1.11-0.07-1.65
		c-0.1-0.7-0.32-1.63-1.08-1.58c-0.68,0.05-0.37,0.99-0.42,1.55c-0.05,0.55-0.01,1.1-0.01,1.65
		C286.95,121.36,286.95,139.14,286.95,156.91z M196.32,157.89c5.68-1.18,11.37-2.36,17.05-3.56c0.89-0.19,0.68-0.83,0.4-1.42
		c-1.32-2.69-2.39-5.51-3.95-8.09c-1.45-2.4-1.44-2.43-2.83-0.05c-1.26,2.17-2.59,4.09-5.41,4.5c-2.72,0.4-5.38,1.13-8.08,1.71
		c-0.78,0.17-1.38,0.42-0.96,1.4c0.69,1.61,1.4,3.21,2.38,4.68C195.25,157.56,195.69,157.84,196.32,157.89z M22.94,173.08
		c1.19,0.07,2.29-0.28,3.31-0.86c2.57-1.46,5.14-2.91,7.67-4.44c0.64-0.39,1.69-0.65,1.55-1.63c-0.15-1.03-1.19-1.24-2.04-1.54
		c-0.14-0.05-0.29-0.09-0.43-0.12c-3.85-0.9-7.71-1.77-11.55-2.71c-0.96-0.24-1.63,0.01-2.25,0.73c-1.9,2.2-3.69,4.49-5.28,6.92
		c-0.82,1.25-0.66,1.74,0.77,2.19C17.36,172.44,20.14,172.85,22.94,173.08z M86.91,219.31c-2.86-1.04-5.52-2.52-8.73-2.36
		c-2.79,0.13-5.6-0.15-8.39-0.33c-12.03-0.76-24.06-1.52-36.04-2.87c-1.75-0.2-3.12,0.45-4.47,1.34c-0.24,0.16-0.57,0.31-0.52,0.66
		c0.06,0.37,0.43,0.38,0.71,0.43c0.34,0.06,0.69,0.09,1.04,0.13c8.45,0.95,16.94,1.4,25.43,1.85c9.24,0.5,18.49,0.77,27.74,1.13
		C84.76,219.34,85.83,219.31,86.91,219.31z M160.17,201.21c-1.74,1.51-1.77,1.53-3.12-0.12c-0.58-0.7-1.08-0.78-1.74-0.2
		c-1.09,0.95-2.28,1.81-3.28,2.85c-1.21,1.27-1.8,3.08-1.09,4.56c1.86,3.87,4.07,7.56,6.16,11.32c0.39,0.7,0.79,0.55,0.99-0.13
		c0.39-1.29,0.77-2.59,1.07-3.9C160.2,210.94,160.48,206.23,160.17,201.21z M165.34,189.94c0-4.76-0.01-9.51,0-14.27
		c0.01-2.66-0.2-5.3-0.5-7.94c-0.14-1.23-0.78-1.66-1.96-1.33c-1.59,0.44-3.18,0.88-4.77,1.34c-0.95,0.27-1.23,0.76-0.52,1.62
		c3.42,4.15,4.95,9.11,5.92,14.27c1.95,10.42,0.97,20.73-1.31,30.99c-0.08,0.34-0.17,0.68-0.23,1.03c-0.05,0.25-0.05,0.52,0.19,0.68
		c0.32,0.2,0.57-0.01,0.81-0.19c0.41-0.32,0.65-0.76,0.8-1.25c0.44-1.39,0.73-2.81,0.91-4.25
		C165.54,203.75,165.36,196.84,165.34,189.94z M224.66,53.28c-0.84-0.03-0.92,0.23-0.44,1.48c2.69,7.01,5.85,13.8,9.63,20.3
		c0.53,0.91,1.03,1.46,2.26,0.91c1.27-0.58,1.2-1.32,0.83-2.4c-2.01-5.87-4.49-11.55-7.24-17.11
		C228.63,54.28,226.21,54.35,224.66,53.28z M221.96,100.11c0.11,0.82,0.25,1.96,0.43,3.1c0.07,0.42,0.04,0.99,0.59,1.11
		c0.52,0.11,0.78-0.38,1.05-0.72c4.45-5.68,8.57-11.58,12.13-17.86c0.53-0.94,0.69-1.6-0.41-2.37c-1.08-0.75-1.66-0.64-2.47,0.32
		c-3.91,4.64-7.52,9.48-10.79,14.59C222.18,98.73,221.89,99.2,221.96,100.11z M150.02,199.18c-0.03,0.97-0.07,1.7,0.57,2.07
		c0.76,0.43,1.17-0.34,1.62-0.74c2.08-1.81,4.1-3.67,6.2-5.45c0.76-0.64,0.97-1.31,0.76-2.23c-0.5-2.25-1.12-4.46-2.05-6.58
		c-0.54-1.24-1.18-2.43-2.11-3.44c-0.25-0.27-0.49-0.77-0.95-0.55c-0.37,0.18-0.23,0.65-0.13,0.96c0.38,1.18-0.08,2.11-0.73,3.07
		c-0.7,1.02-1.65,1.95-1.84,3.23C150.87,192.84,150.44,196.16,150.02,199.18z M246.73,78.81c-1,0-2,0-3,0
		c-0.9,0-1.28,0.44-1.47,1.34c-0.32,1.49,0.38,1.94,1.67,2.19c6.49,1.26,13.05,1.95,19.64,2.32c0.86,0.05,2.07,0.57,2.5-0.28
		c0.39-0.78-0.84-1.3-1.29-1.98c-1.08-1.63-2.55-2.47-4.59-2.64C255.7,79.36,251.22,78.94,246.73,78.81z M150.53,228.85
		c1.54,0.01,2.57-0.93,3.59-1.92c0.91-0.87,1.14-1.7,0.18-2.68c-1.16-1.18-1.58-2.62-1.4-4.25c0.23-2.17-0.31-4.14-1.41-6.01
		c-0.53-0.9-0.91-1.89-1.42-2.8c-0.27-0.48-0.34-1.37-1.08-1.22c-0.62,0.13-0.43,0.93-0.48,1.45c-0.42,4.57-0.8,9.15-1.25,13.72
		C147.05,227.31,148.35,228.85,150.53,228.85z M161.65,190.77c-0.4-5.23-1.66-10.24-4.12-14.91c-0.8-1.51-1.78-2.91-3.08-4.04
		c-2.39-2.08-4.91-2.11-7.31-0.05c-0.77,0.66-2.12,1.34-1.79,2.36c0.34,1.03,1.8,0.57,2.71,0.5c4.62-0.37,7.56,1.93,9.69,5.75
		C159.58,183.65,160.64,187.19,161.65,190.77z M144.43,221.03c-0.21-1.84,1-3.25,1.31-4.86c0.56-2.94,0.75-5.95,0.91-8.95
		c0.12-2.2-0.72-3.69-2.75-4.65c-1.63-0.77-1.88-0.74-1.92,1.08c-0.12,5.17,0.3,10.3,1.5,15.34
		C143.65,219.7,143.75,220.47,144.43,221.03z M216.18,80.9c0.02-1.5-0.05-1.93-0.37-1.98c-0.78-0.12-1.11,0.58-1.55,1.01
		c-3.6,3.56-6.96,7.33-10,11.38c-0.47,0.62-1.05,1.32-0.21,2.11c0.89,0.85,1.48,0.07,2.04-0.44c3.23-2.93,6.22-6.09,9.06-9.4
		C215.88,82.75,216.31,81.86,216.18,80.9z M196.87,96.29c0.7,0.07,1.29-0.01,1.49-0.86c0.21-0.89-0.24-1.27-1.01-1.52
		c-3.94-1.31-7.99-2.16-12.03-3.09c-1.74-0.4-3.13,0.03-4.48,0.99c-0.27,0.19-0.69,0.31-0.62,0.75c0.06,0.43,0.49,0.47,0.81,0.55
		C186.23,94.56,191.51,95.65,196.87,96.29z M208.81,113.53c-0.07-0.34-0.12-0.69-0.22-1.02c-1.16-4.04-2.52-8.02-4.18-11.88
		c-0.32-0.74-0.63-1.55-1.72-1.23c-1.14,0.34-0.85,1.18-0.67,1.96c1.1,4.84,2.51,9.58,4.25,14.22c0.12,0.33,0.25,0.66,0.43,0.95
		c0.24,0.39,0.6,0.43,0.83,0.02C208.07,115.61,208.63,114.65,208.81,113.53z M224.18,205.02c0.75-0.63,0.72-1.21,0.81-1.73
		c0.45-2.76,0.53-5.56,0.8-8.34c0.18-1.88-1.34-2.08-2.18-2.95c-0.17-0.18-0.47-0.01-0.69,0.1c-1.66,0.86-2.87,3.31-2.18,5.14
		C221.71,199.84,222.97,202.33,224.18,205.02z M223.37,165.88c-0.89-2.1-1.21-4.2-1.66-6.27c-0.05-0.21-0.25-0.49-0.45-0.56
		c-1.54-0.56-2.03-1.97-2.67-3.25c-0.26-0.53-0.5-1-1.2-0.85c-0.73,0.15-0.97,0.66-0.87,1.34c0.45,3.01,0.9,6.02,0.89,9.07
		c0,0.48,0.22,1.05,0.8,0.65C219.87,164.87,221.51,164.83,223.37,165.88z M201.2,103.48c-0.45,0.23-0.35,0.57-0.37,0.84
		c-0.37,6.8-0.73,13.6-1.08,20.4c-0.02,0.39-0.05,0.84,0.11,1.18c0.39,0.83,1.07,1.74,1.93,1.65c0.83-0.08,0.46-1.18,0.45-1.82
		c-0.08-6.21-0.21-12.42-0.33-18.63C201.88,105.86,201.71,104.65,201.2,103.48z M25.12,186.3c-0.87-0.72-1.57-0.84-2.22-1.02
		c-4.44-1.21-8.96-2.23-12.65-5.27c-0.44-0.37-0.88-0.27-1.11,0.24c-0.68,1.51-1.24,3.07-1.44,4.72c-0.06,0.54,0.26,0.96,0.83,0.62
		c1.98-1.18,4.08-0.73,6.16-0.5C18.05,185.45,21.4,185.86,25.12,186.3z M223.28,179.24c-0.29,0.26-0.41,0.35-0.5,0.46
		c-2.4,3.09-2.05,6.88-2.62,10.43c-0.13,0.78,0.45,0.84,0.93,0.36c1.23-1.24,2.42-2.52,3.62-3.79c0.25-0.27,0.35-0.62,0.3-0.97
		C224.7,183.56,224.26,181.43,223.28,179.24z M186.33,211.14c1.23,0.52,2.11,0.44,2.99,0.36c4.13-0.38,8.23-1.16,12.4-0.75
		c0.77,0.08,1.09-0.23,0.94-1.06c-0.33-1.93-1.06-2.54-3-2.05C195.36,208.71,191.08,209.88,186.33,211.14z M219.62,199.41
		c-0.49,0.33-0.45,0.65-0.46,0.94c-0.2,3.17,0.25,6.37-0.42,9.54c-0.2,0.97,0.68,1.75,1.58,2.15c0.83,0.37,1.42-0.19,1.93-0.78
		c0.6-0.7,0.92-1.44,0.22-2.27c-0.94-1.11-1.11-2.43-1-3.8C221.64,203.03,220.61,201.28,219.62,199.41z M219.79,177.38
		c-0.97,0.35-1.08,1.06-1.4,1.59c-2.18,3.66-1.39,7.57-0.94,11.44c0.03,0.26,0.14,0.53,0.42,0.54c0.49,0.02,0.52-0.41,0.57-0.74
		c0.22-1.74,0.43-3.48,0.61-5.22C219.32,182.53,219.76,180.07,219.79,177.38z M181.95,124.4c3.78,8.14,6.82,16.57,9.88,24.99
		C189.89,140.52,186.28,132.32,181.95,124.4z M7.18,188.98c-0.15,0.35-0.26,0.52-0.29,0.71c-0.98,6.11-0.26,12.13,0.92,18.13
		c0.06,0.29,0.17,0.73,0.49,0.64c0.62-0.17,0.32-0.74,0.27-1.13c-0.7-5.55-1.05-11.13-1.06-16.72
		C7.51,190.12,7.64,189.61,7.18,188.98z M180.43,124.55c-0.24,0.7,0.14,1.1,0.34,1.52c2.42,4.89,4.45,9.94,6.12,15.14
		c0.84,2.62,1.58,5.26,2.4,7.89c0.12,0.38,0.18,1.05,0.79,0.85c0.49-0.16,0.21-0.68,0.13-1.06c-0.04-0.2-0.11-0.38-0.17-0.57
		c-2.24-6.89-4.61-13.74-7.76-20.29C181.74,126.88,181.37,125.63,180.43,124.55z M203.62,111.74c-0.58,0.68-0.42,1.44-0.42,2.17
		c0.02,4.89,0.06,9.78,0.12,14.67c0.01,0.52,0.03,1.32,0.7,1.29c0.63-0.04,0.4-0.81,0.39-1.26c-0.12-3.54-0.27-7.08-0.44-10.62
		C203.87,115.91,203.74,113.83,203.62,111.74z M238.88,84.54c-0.26,0.22-0.26,0.52-0.26,0.81c0.04,5.14,0.07,10.28,0.12,15.41
		c0,0.3,0.05,0.6,0.12,0.89c0.06,0.24,0.13,0.52,0.46,0.5c0.3-0.02,0.41-0.25,0.44-0.51c0.03-0.3,0.04-0.6,0.03-0.9
		c-0.17-4.98-0.35-9.97-0.54-14.95C239.24,85.37,239.38,84.88,238.88,84.54z M215.83,195.65c-0.04,0-0.09,0.01-0.13,0.01
		c0.24,2.27,0.47,4.55,0.73,6.82c0.04,0.33,0.04,0.79,0.51,0.78c0.39,0,0.38-0.42,0.38-0.7c0-2.63,0.54-5.26,0.07-7.89
		c-0.11-0.6-0.26-1.16-0.63-1.65c-0.15-0.2-0.31-0.43-0.59-0.37c-0.3,0.07-0.32,0.37-0.32,0.61
		C215.82,194.06,215.83,194.86,215.83,195.65z M147.49,203.43c0.14,1.47,0.26,2.75,0.39,4.04c0.04,0.36,0.15,0.7,0.58,0.76
		c0.48,0.06,0.78-0.22,0.88-0.63c0.3-1.3,0.66-2.61,0.81-3.93c0.1-0.88-0.41-1.86-1.3-1.88
		C147.93,201.75,147.61,202.74,147.49,203.43z M269.94,84.75c0.35-0.23,1.46,0.42,1.17-0.75c-0.37-1.51-3.45-3.44-4.95-3.32
		c-0.38,0.03-0.71,0.07-0.63,0.58C265.68,82.31,268.66,84.73,269.94,84.75z M223.3,48.48c-0.99,0.01-1.01,0.35-0.95,0.82
		c0.2,1.5,3.29,3.89,4.76,3.67c0.41-0.06,0.43-0.29,0.36-0.64C227.19,50.81,224.39,48.46,223.3,48.48z M225.36,175.16
		c-0.69-2.07-1.35-3.88-2.76-5.28c-1.12-1.11-2.39-1.16-3.45-0.19c-0.32,0.3-0.75,0.6-0.59,1.12c0.17,0.55,0.72,0.5,1.14,0.47
		c2.2-0.18,3.52,1.03,4.54,2.78C224.45,174.43,224.54,174.92,225.36,175.16z M220.77,101.4c-2.1,1.94-2.04,4.12-1.5,6.4
		c0.12,0.51,0.41,0.73,0.84,0.33c0.7-0.65,1.42-1.33,1.35-2.4C221.36,104.33,221.22,102.95,220.77,101.4z M234.93,79.59
		c-0.09,1.78,1.2,3.25,2.92,3.32c1.72,0.08,3.11-1.16,3.2-2.85c0.11-1.88-1.05-3.26-2.82-3.37
		C236.42,76.58,235.02,77.81,234.93,79.59z M154.21,217.37c-0.27,1.62-0.51,3.2-0.01,4.76c0.14,0.46,0.42,1.01,0.99,1
		c0.53-0.01,0.64-0.58,0.8-0.98C156.85,220.06,155.09,218.89,154.21,217.37z M274.58,84.46c0.03,0,0.34-0.01,0.62-0.07
		c0.47-0.11,1.11-0.09,1.17-0.7c0.06-0.55-0.53-0.68-0.93-0.82c-1.17-0.4-2.36-0.76-3.56-1.09c-0.41-0.11-0.99,0.01-0.56,0.57
		C272.09,83.32,272.72,84.6,274.58,84.46z M218.23,109.15c-0.03-0.41-0.03-0.61-0.07-0.8c-0.08-0.42,0.01-1.02-0.51-1.13
		c-0.56-0.12-0.65,0.5-0.84,0.87c-0.23,0.44-0.45,0.89-0.57,1.36c-0.16,0.61-0.86,1.44,0.08,1.79c0.74,0.28,1.33-0.49,1.7-1.15
		C218.19,109.76,218.19,109.33,218.23,109.15z M150.94,185.31c0.04,0.47-0.16,0.93,0.29,1.16c0.12,0.06,0.41-0.03,0.52-0.15
		c0.8-0.93,1.51-1.91,0.95-3.25c-0.14-0.33-0.27-0.69-0.68-0.7c-0.52-0.02-0.66,0.4-0.74,0.8
		C151.13,183.9,151.04,184.65,150.94,185.31z M159.05,198.89c-0.26-0.61,0.29-1.77-0.86-1.84c-0.62-0.04-1.36,0.68-1.31,1.41
		c0.06,0.83,0.6,1.75,1.45,1.87C159.14,200.45,158.97,199.52,159.05,198.89z M209.96,117.68c-0.14-0.33,0.03-1.01-0.52-1.18
		c-0.68-0.22-0.73,0.52-0.94,0.91c-0.26,0.47-0.5,0.98-0.61,1.51c-0.13,0.6-0.06,1.31,0.6,1.51c0.62,0.19,0.73-0.53,0.96-0.93
		C209.73,118.96,209.99,118.42,209.96,117.68z M221.34,45.1c-0.01,1.16,1.27,2.42,2.44,2.42c0.69,0,0.61-0.44,0.37-0.79
		c-0.5-0.74-1.06-1.45-1.62-2.14c-0.21-0.26-0.51-0.53-0.91-0.28C221.32,44.48,221.33,44.79,221.34,45.1z M177.73,92
		c0.96-0.11,1.8-0.62,2.5-1.33c0.2-0.2,0.04-0.51-0.2-0.61c-0.9-0.37-1.74-0.14-2.54,0.34c-0.08,0.05-0.18,0.09-0.26,0.15
		c-0.3,0.23-0.8,0.37-0.67,0.86C176.71,91.93,177.23,91.93,177.73,92z M217.36,78.48c0.07,0.43-0.24,1.2,0.41,1.35
		c0.7,0.17,0.98-0.58,1.16-1.12c0.25-0.79,0.42-1.64-0.07-2.42c-0.06-0.1-0.4-0.13-0.53-0.06
		C217.48,76.69,217.37,77.53,217.36,78.48z M234.76,215.82c1.6,0.86,3.25,0.44,4.89,0.23c0.34-0.04,0.94-0.03,0.81-0.6
		c-0.1-0.44-0.64-0.51-1.01-0.42C237.92,215.42,236.34,215.52,234.76,215.82z M219.78,193.8c0.04-0.57,0.03-1.07-0.58-1.11
		c-0.5-0.03-0.64,0.41-0.67,0.82c-0.03,0.44-0.05,0.9,0,1.34c0.06,0.51-0.18,1.37,0.4,1.44c0.71,0.08,0.44-0.82,0.6-1.28
		C219.67,194.59,219.71,194.14,219.78,193.8z M145.99,223.2c0.66-1.63,0.63-2.91,0.66-4.19c0-0.24-0.04-0.55-0.37-0.54
		c-0.14,0.01-0.38,0.23-0.39,0.37C145.74,220.15,145.33,221.46,145.99,223.2z M210.24,120.7c-0.58,0.7-1.05,1.37-0.7,2.28
		c0.17,0.44,0.38,1.1,0.94,1.01c0.68-0.11,0.43-0.8,0.38-1.25C210.79,122.07,210.9,121.33,210.24,120.7z M143.74,197.51
		c-0.09,0-0.19-0.01-0.28-0.01c-0.1,0.87-0.23,1.75-0.3,2.63c-0.03,0.34,0.08,0.78,0.48,0.8c0.53,0.02,0.39-0.47,0.37-0.78
		C143.95,199.26,143.84,198.38,143.74,197.51z M175.63,89.98c-0.23-0.57-0.73-0.43-1.13-0.41c-0.43,0.03-1.15-0.24-1.13,0.52
		c0.01,0.49,0.62,0.58,1.06,0.57C174.93,90.66,175.4,90.52,175.63,89.98z M221.48,156.77c-0.04-0.46-0.11-0.93-0.66-1.05
		c-0.34-0.08-0.63,0.13-0.6,0.47c0.04,0.51,0.23,1.02,0.78,1.16C221.41,157.46,221.47,157.09,221.48,156.77z M201.77,95.25
		c-0.45,0.03-0.72,0.27-0.73,0.74c-0.01,0.4,0.23,0.67,0.61,0.72c0.47,0.06,0.77-0.21,0.82-0.66
		C202.52,95.58,202.26,95.31,201.77,95.25z M221.28,74.01c-0.53,0.24-0.89,0.66-0.89,1.32c0,0.3,0.09,0.71,0.47,0.52
		c0.55-0.27,0.78-0.86,0.92-1.44C221.85,74.11,221.65,73.97,221.28,74.01z M239.42,104.33c-0.28,1.02-0.53,2.03,0.13,3.28
		C239.95,106.33,239.93,105.33,239.42,104.33z M221.33,178c-0.54,0.71-0.52,1.35-0.43,2.24C221.69,179.52,221.96,178.93,221.33,178z
		 M223.38,206.33c-0.03-0.34-0.02-0.76-0.43-0.82c-0.4-0.06-0.4,0.34-0.4,0.61c0,0.33-0.03,0.76,0.4,0.82
		C223.36,207,223.33,206.6,223.38,206.33z M224.1,189.15c-0.26,0.09-0.43,0.26-0.36,0.54c0.08,0.3,0.29,0.54,0.62,0.47
		c0.29-0.06,0.28-0.36,0.23-0.6C224.54,189.3,224.41,189.11,224.1,189.15z M179.66,123.31c-0.01-0.38-0.01-0.78-0.48-0.97
		C179.02,122.79,179.27,123.07,179.66,123.31z"/>
	<path class="st0" d="M285.81,156.6c0,18.78,0,37.55,0,56.33c0,3.47-0.19,3.68-3.7,3.45c-9.19-0.6-18.37-1.44-27.57-1.8
		c-1.17-0.05-1.73-0.66-1.8-1.77c-0.03-0.45-0.03-0.9-0.03-1.35c0-36.5,0-73,0-109.5c0-2.66,0.25-2.9,2.87-3.09
		c8.84-0.65,17.67-1.31,26.51-1.98c3.44-0.26,3.73-0.02,3.73,3.4C285.81,119.04,285.81,137.82,285.81,156.6z M284.87,156.76
		c0-18.28,0-36.56,0-54.84c0-3.2-0.93-3.96-4.11-3.72c-7.74,0.57-15.48,1.1-23.23,1.6c-3.52,0.23-4.34,0.96-4.34,4.47
		c-0.01,3.8,0.15,7.61,0.15,11.41c0.01,28.85,0.01,57.7,0.01,86.55c0,2.55-0.02,5.11,0.01,7.66c0.03,2.5,0.82,3.35,3.26,3.55
		c1.95,0.16,3.89,0.3,5.84,0.43c6.34,0.45,12.68,0.92,19.03,1.32c2.42,0.15,3.28-0.72,3.37-3.13c0.02-0.65,0.01-1.3,0.01-1.95
		C284.87,192.32,284.87,174.54,284.87,156.76z"/>
	<path class="st0" d="M136.87,188.47c0.17,0,0.34,0,0.51,0c-0.43,2.31-0.86,4.62-1.28,6.93c-1.12,6.18-1.44,12.42-1.48,18.69
		c-0.01,1.8-0.11,3.6-0.26,5.4c-0.08,0.94-0.41,1.82-1.53,2.36c-0.15-1.18,0.37-2.08,0.51-3.04c0.55-3.68,0.45-7.39,0.7-11.09
		c0.41-6,1.06-11.97,2.32-17.86C136.47,189.39,136.69,188.94,136.87,188.47z"/>
	<path class="st0" d="M181.95,124.4c4.32,7.92,7.94,16.12,9.88,24.99C188.77,140.96,185.73,132.53,181.95,124.4z"/>
	<path class="st0" d="M7.18,188.98c0.46,0.63,0.33,1.14,0.33,1.62c0.01,5.6,0.35,11.17,1.06,16.72c0.05,0.4,0.35,0.96-0.27,1.13
		c-0.32,0.09-0.43-0.35-0.49-0.64c-1.17-6-1.9-12.02-0.92-18.13C6.92,189.5,7.03,189.33,7.18,188.98z"/>
	<path class="st0" d="M180.43,124.55c0.93,1.07,1.31,2.33,1.86,3.47c3.15,6.54,5.52,13.39,7.76,20.29c0.06,0.19,0.13,0.38,0.17,0.57
		c0.08,0.37,0.36,0.9-0.13,1.06c-0.62,0.2-0.67-0.46-0.79-0.85c-0.81-2.62-1.56-5.27-2.4-7.89c-1.67-5.19-3.69-10.25-6.12-15.14
		C180.57,125.66,180.2,125.25,180.43,124.55z"/>
	<path class="st0" d="M203.62,111.74c0.12,2.08,0.26,4.16,0.35,6.25c0.16,3.54,0.32,7.08,0.44,10.62c0.02,0.45,0.24,1.23-0.39,1.26
		c-0.68,0.04-0.7-0.76-0.7-1.29c-0.06-4.89-0.1-9.78-0.12-14.67C203.2,113.18,203.04,112.43,203.62,111.74z"/>
	<path class="st0" d="M238.88,84.54c0.5,0.34,0.36,0.83,0.38,1.24c0.19,4.98,0.36,9.97,0.54,14.95c0.01,0.3-0.01,0.6-0.03,0.9
		c-0.02,0.26-0.14,0.5-0.44,0.51c-0.32,0.02-0.4-0.26-0.46-0.5c-0.07-0.29-0.12-0.59-0.12-0.89c-0.05-5.14-0.08-10.28-0.12-15.41
		C238.62,85.06,238.62,84.76,238.88,84.54z"/>
	<path class="st0" d="M215.83,195.65c0-0.8-0.01-1.59,0.01-2.39c0-0.24,0.02-0.54,0.32-0.61c0.28-0.06,0.44,0.17,0.59,0.37
		c0.37,0.49,0.53,1.05,0.63,1.65c0.47,2.64-0.07,5.26-0.07,7.89c0,0.28,0.01,0.7-0.38,0.7c-0.46,0-0.47-0.46-0.51-0.78
		c-0.25-2.27-0.49-4.55-0.73-6.82C215.74,195.66,215.78,195.66,215.83,195.65z"/>
	<path class="st0" d="M225.36,175.16c-0.82-0.25-0.91-0.74-1.12-1.1c-1.01-1.75-2.34-2.96-4.54-2.78c-0.42,0.03-0.97,0.08-1.14-0.47
		c-0.16-0.51,0.27-0.82,0.59-1.12c1.06-0.97,2.33-0.92,3.45,0.19C224.02,171.29,224.67,173.1,225.36,175.16z"/>
	<path class="st0" d="M234.93,79.59c0.09-1.78,1.49-3,3.31-2.9c1.77,0.1,2.93,1.49,2.82,3.37c-0.1,1.69-1.49,2.93-3.2,2.85
		C236.13,82.83,234.85,81.37,234.93,79.59z M237.97,77.38c-1.3,0.01-2.33,1.09-2.3,2.42c0.02,1.29,1.12,2.39,2.38,2.37
		c1.28-0.01,2.35-1.13,2.32-2.42C240.35,78.48,239.23,77.37,237.97,77.38z"/>
	<path class="st0" d="M154.21,217.37c0.88,1.52,2.63,2.68,1.78,4.78c-0.16,0.4-0.27,0.97-0.8,0.98c-0.58,0.01-0.85-0.55-0.99-1
		C153.71,220.58,153.94,218.99,154.21,217.37z"/>
	<path class="st0" d="M217.27,169.5c0.15-0.42,0.22-0.9,0.46-1.25c0.8-1.14,1.82-2.13,3.32-1.89c1.49,0.24,2.25,1.42,2.79,2.83
		c-2.33-1.75-4.46-1.65-6.43,0.43C217.37,169.58,217.32,169.54,217.27,169.5z"/>
	<path class="st0" d="M274.58,84.46c-1.85,0.15-2.49-1.13-3.25-2.12c-0.43-0.56,0.16-0.68,0.56-0.57c1.2,0.33,2.38,0.69,3.56,1.09
		c0.4,0.14,0.99,0.27,0.93,0.82c-0.07,0.62-0.71,0.6-1.17,0.7C274.91,84.45,274.61,84.45,274.58,84.46z"/>
	<path class="st0" d="M218.23,109.15c-0.04,0.18-0.04,0.61-0.22,0.94c-0.37,0.66-0.95,1.43-1.7,1.15c-0.94-0.35-0.23-1.18-0.08-1.79
		c0.12-0.47,0.35-0.93,0.57-1.36c0.19-0.37,0.28-0.99,0.84-0.87c0.51,0.11,0.43,0.71,0.51,1.13
		C218.2,108.54,218.2,108.74,218.23,109.15z"/>
	<path class="st0" d="M150.94,185.31c0.1-0.66,0.19-1.4,0.33-2.14c0.08-0.39,0.22-0.81,0.74-0.8c0.42,0.01,0.55,0.37,0.68,0.7
		c0.56,1.34-0.14,2.31-0.95,3.25c-0.1,0.12-0.4,0.21-0.52,0.15C150.78,186.23,150.97,185.78,150.94,185.31z"/>
	<path class="st0" d="M209.96,117.68c0.03,0.74-0.22,1.29-0.51,1.81c-0.22,0.4-0.34,1.12-0.96,0.93c-0.66-0.2-0.73-0.91-0.6-1.51
		c0.11-0.52,0.35-1.03,0.61-1.51c0.21-0.39,0.27-1.13,0.94-0.91C209.99,116.67,209.82,117.34,209.96,117.68z"/>
	<path class="st0" d="M221.34,45.1c-0.01-0.3-0.02-0.62,0.28-0.8c0.39-0.25,0.69,0.02,0.91,0.28c0.57,0.69,1.12,1.4,1.62,2.14
		c0.24,0.36,0.32,0.79-0.37,0.79C222.6,47.52,221.33,46.26,221.34,45.1z"/>
	<path class="st0" d="M177.73,92c-0.51-0.07-1.02-0.07-1.16-0.59c-0.13-0.49,0.36-0.64,0.67-0.86c0.08-0.06,0.17-0.1,0.26-0.15
		c0.8-0.48,1.64-0.71,2.54-0.34c0.24,0.1,0.4,0.41,0.2,0.61C179.53,91.39,178.7,91.89,177.73,92z"/>
	<path class="st0" d="M217.36,78.48c0.01-0.95,0.11-1.78,0.97-2.26c0.13-0.07,0.47-0.04,0.53,0.06c0.49,0.78,0.32,1.63,0.07,2.42
		c-0.17,0.54-0.46,1.29-1.16,1.12C217.12,79.67,217.44,78.91,217.36,78.48z"/>
	<path class="st0" d="M234.76,215.82c1.58-0.31,3.16-0.4,4.69-0.79c0.37-0.09,0.91-0.02,1.01,0.42c0.13,0.57-0.47,0.56-0.81,0.6
		C238.01,216.26,236.36,216.68,234.76,215.82z"/>
	<path class="st0" d="M157.16,226.05c-0.19-0.11-0.38-0.21-0.57-0.32c1-2.09,2.11-4.14,2.94-6.32
		C158.91,221.69,158.55,224.05,157.16,226.05z"/>
	<path class="st0" d="M219.78,193.8c-0.06,0.34-0.1,0.79-0.24,1.21c-0.16,0.46,0.11,1.36-0.6,1.28c-0.58-0.06-0.35-0.92-0.4-1.44
		c-0.05-0.44-0.03-0.89,0-1.34c0.03-0.42,0.17-0.85,0.67-0.82C219.81,192.73,219.82,193.23,219.78,193.8z"/>
	<path class="st0" d="M145.99,223.2c-0.67-1.74-0.25-3.05-0.1-4.36c0.02-0.14,0.25-0.36,0.39-0.37c0.33-0.02,0.38,0.3,0.37,0.54
		C146.62,220.29,146.65,221.57,145.99,223.2z"/>
	<path class="st0" d="M157.48,184.29c0.11-0.31,0.22-0.63,0.33-0.94c1.31,2.24,1.62,4.8,2.3,7.26
		C159.08,188.56,158.54,186.32,157.48,184.29z"/>
	<path class="st0" d="M210.24,120.7c0.66,0.64,0.54,1.38,0.62,2.04c0.05,0.45,0.3,1.14-0.38,1.25c-0.56,0.09-0.77-0.56-0.94-1.01
		C209.2,122.07,209.66,121.39,210.24,120.7z"/>
	<path class="st0" d="M161.43,182.13c0.15,0.01,0.29,0.02,0.44,0.04c0.9,1.89,0.81,3.94,0.81,6
		C162.27,186.15,161.85,184.14,161.43,182.13z"/>
	<path class="st0" d="M143.74,197.51c0.09,0.88,0.2,1.75,0.27,2.63c0.02,0.31,0.16,0.8-0.37,0.78c-0.41-0.01-0.51-0.46-0.48-0.8
		c0.07-0.88,0.19-1.75,0.3-2.63C143.55,197.5,143.65,197.5,143.74,197.51z"/>
	<path class="st0" d="M175.63,89.98c-0.23,0.54-0.7,0.69-1.2,0.69c-0.44,0-1.05-0.08-1.06-0.57c-0.02-0.76,0.71-0.49,1.13-0.52
		C174.9,89.55,175.41,89.41,175.63,89.98z"/>
	<path class="st0" d="M221.48,156.77c-0.01,0.32-0.07,0.69-0.48,0.58c-0.55-0.14-0.74-0.65-0.78-1.16c-0.03-0.35,0.26-0.55,0.6-0.47
		C221.37,155.84,221.44,156.31,221.48,156.77z"/>
	<path class="st0" d="M201.77,95.25c0.49,0.06,0.75,0.33,0.7,0.8c-0.05,0.45-0.35,0.72-0.82,0.66c-0.38-0.05-0.62-0.32-0.61-0.72
		C201.04,95.51,201.32,95.28,201.77,95.25z"/>
	<path class="st0" d="M221.28,74.01c0.38-0.04,0.58,0.1,0.5,0.4c-0.14,0.58-0.37,1.17-0.92,1.44c-0.39,0.19-0.48-0.22-0.47-0.52
		C220.39,74.67,220.75,74.25,221.28,74.01z"/>
	<path class="st0" d="M239.22,109.65c-0.09,1.84,0.61,3.67,0.05,5.51C238.92,113.32,238.88,111.49,239.22,109.65z"/>
	<path class="st0" d="M98.37,187.69c-0.01,0.24-0.02,0.48-0.03,0.72c-1.19,0-2.38,0-3.58,0c-0.01-0.07-0.03-0.15-0.04-0.22
		C95.94,188.03,97.16,187.86,98.37,187.69z"/>
	<path class="st0" d="M221.33,178c0.63,0.93,0.37,1.52-0.43,2.24C220.81,179.35,220.79,178.71,221.33,178z"/>
	<path class="st0" d="M223.38,206.33c-0.05,0.27-0.02,0.67-0.43,0.61c-0.43-0.06-0.4-0.49-0.4-0.82c0-0.28,0-0.68,0.4-0.61
		C223.36,205.57,223.35,205.99,223.38,206.33z"/>
	<path class="st0" d="M239.52,124.67c0.01,2.45,0.02,4.89,0.04,7.34C239.19,129.56,239.16,127.11,239.52,124.67z"/>
	<path class="st0" d="M224.1,189.15c0.31-0.04,0.44,0.15,0.49,0.41c0.05,0.24,0.06,0.54-0.23,0.6c-0.33,0.07-0.55-0.17-0.62-0.47
		C223.67,189.41,223.84,189.23,224.1,189.15z"/>
	<path class="st0" d="M239.55,161.38c-0.01,1.94-0.02,3.89-0.04,5.83C239.16,165.27,239.2,163.33,239.55,161.38z"/>
	<path class="st0" d="M104.65,188.36c1.19-0.24,2.37-0.58,3.59-0.19C107.06,188.51,105.86,188.43,104.65,188.36z"/>
	<path class="st0" d="M224.24,178.22c0.1-0.09,0.19-0.19,0.29-0.28c0.3,0.61,0.64,1.21,0.53,2.12
		C224.43,179.47,224.42,178.81,224.24,178.22z"/>
	<path class="st0" d="M240.66,124.12c-0.26-0.88-0.52-1.76-0.21-2.69C240.75,122.31,240.74,123.21,240.66,124.12z"/>
	<path class="st0" d="M179.66,123.31c-0.39-0.23-0.64-0.52-0.48-0.97C179.65,122.53,179.65,122.93,179.66,123.31z"/>
	<path class="st0" d="M240.95,130.14c-0.32-0.68-0.48-1.37-0.19-2.1C241.02,128.72,241.04,129.43,240.95,130.14z"/>
	<path class="st0" d="M9.19,210.22c-0.15,0.17-0.31,0.34-0.46,0.51c-0.18-0.38-0.59-0.86-0.11-1.15
		C9.02,209.35,9.07,209.93,9.19,210.22z"/>
	<path class="st0" d="M240.35,118.1c-0.25-0.78-0.23-1.59-0.18-2.39C240.43,116.49,240.45,117.29,240.35,118.1z"/>
	<path class="st0" d="M240.03,111.18c-0.05-0.49-0.11-0.98-0.16-1.48C240.05,110.18,240.1,110.67,240.03,111.18z"/>
	<path class="st0" d="M138.23,183.26c-0.14,0.33-0.28,0.66-0.43,0.99C137.95,183.92,138.09,183.59,138.23,183.26z"/>
	<path class="st0" d="M181.26,122.94c-0.04-0.03-0.08-0.06-0.12-0.08C181.18,122.89,181.22,122.92,181.26,122.94L181.26,122.94z"/>
	<path class="st0" d="M114.82,188.17c0.2,0.07,0.39,0.13,0.59,0.2C115.21,188.3,115.01,188.24,114.82,188.17z"/>
	<path class="st0" d="M100.08,187.37c-0.2,0.07-0.39,0.13-0.59,0.2C99.69,187.5,99.89,187.43,100.08,187.37z"/>
	<path class="st0" d="M137.38,186.06c-0.08,0.2-0.15,0.4-0.23,0.6C137.23,186.45,137.3,186.25,137.38,186.06z"/>
	<path class="st0" d="M160.74,177.63c-0.08-0.19-0.15-0.37-0.23-0.56C160.58,177.26,160.66,177.45,160.74,177.63z"/>
	<path class="st0" d="M217.42,169.62c-0.19,0.12-0.21,0.06-0.15-0.12C217.32,169.54,217.37,169.58,217.42,169.62z"/>
	<path class="st0" d="M181.25,122.95C181.25,122.95,181.26,122.94,181.25,122.95C181.26,122.94,181.25,122.95,181.25,122.95z"/>
	<path class="st0" d="M137.08,187.26c-0.01,0.12-0.02,0.24-0.03,0.36C137.06,187.5,137.07,187.38,137.08,187.26z"/>
	<path class="st0" d="M137.68,187.29c0.01-0.14,0.02-0.27,0.03-0.41C137.71,187.02,137.69,187.16,137.68,187.29z"/>
	<path class="st0" d="M101.88,187.1c-0.1,0.05-0.2,0.11-0.3,0.16C101.68,187.21,101.78,187.15,101.88,187.1z"/>
	<path class="st0" d="M137.95,186.36c0.02-0.12,0.04-0.25,0.07-0.37C138,186.11,137.98,186.23,137.95,186.36z"/>
	<path class="st0" d="M137.69,184.87c-0.02,0.12-0.03,0.25-0.05,0.37C137.66,185.11,137.67,184.99,137.69,184.87z"/>
	<path class="st0" d="M137.38,188.46c0.01-0.12,0.02-0.25,0.04-0.37C137.4,188.21,137.39,188.34,137.38,188.46z"/>
	<path class="st0" d="M161.74,181.61c-0.01-0.12-0.01-0.25-0.02-0.37C161.73,181.36,161.74,181.48,161.74,181.61z"/>
	<path class="st0" d="M160.98,181.01c0.06,0.07,0.11,0.15,0.14,0.24C161.06,181.18,161.02,181.1,160.98,181.01z"/>
	<path class="st0" d="M161.56,180.3c-0.05-0.09-0.09-0.18-0.14-0.27C161.47,180.12,161.52,180.21,161.56,180.3z"/>
	<path class="st0" d="M160.79,179.99c0.01,0.12,0.03,0.24,0.04,0.35C160.82,180.23,160.81,180.11,160.79,179.99z"/>
	<path class="st0" d="M160.97,178.21c-0.06-0.08-0.12-0.16-0.15-0.26C160.88,178.03,160.94,178.12,160.97,178.21z"/>
	<path class="st0" d="M223.46,177.07c0.07,0.06,0.12,0.12,0.17,0.2C223.56,177.21,223.51,177.15,223.46,177.07z"/>
	<path class="st0" d="M223.77,175.5c-0.06-0.06-0.11-0.13-0.15-0.21C223.69,175.35,223.74,175.42,223.77,175.5z"/>
	<path class="st0" d="M155.4,227.33c-0.05,0.07-0.1,0.13-0.17,0.18C155.27,227.44,155.33,227.38,155.4,227.33z"/>
	<path class="st0" d="M155.09,227.65c-0.04,0.06-0.1,0.12-0.16,0.16C154.97,227.75,155.03,227.69,155.09,227.65z"/>
	<path class="st0" d="M154.78,227.96c-0.04,0.06-0.09,0.11-0.16,0.15C154.67,228.05,154.72,228,154.78,227.96z"/>
	<path class="st0" d="M154.48,228.26c-0.04,0.06-0.1,0.12-0.16,0.16C154.37,228.35,154.42,228.3,154.48,228.26z"/>
	<path class="st0" d="M154.18,228.55c-0.05,0.07-0.12,0.13-0.19,0.18C154.04,228.66,154.11,228.6,154.18,228.55z"/>
	<path class="st0" d="M98.62,175.36c-5.17,0.91-8.86-3.21-12.69-6.98c-0.89-0.87-0.52-1.8,0.81-2.48c2.53-1.29,5.26-1.94,8.06-2.26
		c8.9-1.01,17.76-2.43,26.69-3.23c3.84-0.34,7.69-0.6,11.55-0.47c0.5,0.02,1,0.05,1.49,0.14c1.89,0.33,2.45,1.39,1.37,2.96
		c-2.19,3.19-4.74,6.09-7.84,8.44c-1.47,1.12-3.22,1.6-5.03,1.81C115.27,174.22,107.49,174.91,98.62,175.36z M129.9,161.26
		c0-0.06,0-0.11,0-0.17c-1.35,0.08-2.7,0.14-4.04,0.23c-10.34,0.68-20.57,2.36-30.86,3.54c-2.24,0.25-4.44,0.74-6.54,1.62
		c-1.74,0.73-1.83,1.11-0.46,2.33c0.71,0.63,1.49,1.19,2.16,1.86c2.82,2.82,6.19,3.69,10.14,3.41c7.84-0.56,15.67-1.16,23.46-2.14
		c1.37-0.17,2.62-0.69,3.71-1.52c2.81-2.14,5.05-4.84,7.17-7.64c0.68-0.89,0.31-1.45-0.69-1.51
		C132.6,161.19,131.25,161.26,129.9,161.26z"/>
	<path class="st0" d="M284.87,156.76c0,17.78,0,35.56,0,53.34c0,0.65,0.01,1.3-0.01,1.95c-0.08,2.41-0.95,3.28-3.37,3.13
		c-6.35-0.4-12.69-0.87-19.03-1.32c-1.95-0.14-3.9-0.28-5.84-0.43c-2.44-0.2-3.24-1.05-3.26-3.55c-0.03-2.55-0.01-5.11-0.01-7.66
		c0-28.85,0.01-57.7-0.01-86.55c0-3.8-0.16-7.61-0.15-11.41c0.01-3.51,0.82-4.24,4.34-4.47c7.74-0.5,15.49-1.03,23.23-1.6
		c3.17-0.24,4.1,0.52,4.11,3.72C284.87,120.2,284.87,138.48,284.87,156.76z M283.68,176.56c0-11.61,0-23.23,0-34.84
		c0-2.15-0.14-2.29-2.32-2.3c-8.31-0.01-16.62-0.01-24.93,0c-1.83,0-2.06,0.21-2.06,1.95c-0.01,22.73-0.01,45.45,0,68.18
		c0,2.11,0.4,2.58,2.5,2.74c7.88,0.6,15.77,1.15,23.66,1.71c2.84,0.2,3.14-0.07,3.14-2.9C283.69,199.58,283.68,188.07,283.68,176.56
		z M263.79,112.62c0-0.01,0-0.01,0-0.02c0.9-0.05,1.8-0.11,2.7-0.15c5.09-0.27,10.19-0.57,15.29-0.81c1.37-0.07,1.97-0.64,1.92-2.05
		c-0.07-1.9-0.01-3.8-0.01-5.7c-0.01-2.57-0.09-2.69-2.61-2.53c-7.44,0.49-14.87,1.03-22.31,1.52c-1.4,0.09-2.12,0.76-2.15,2.15
		c-0.05,2.1-0.07,4.2-0.12,6.3c-0.03,1.22,0.55,1.72,1.76,1.63C260.1,112.82,261.94,112.73,263.79,112.62z M268.92,138.22
		c4.3,0,8.6-0.03,12.9,0.02c1.35,0.01,1.88-0.51,1.87-1.86c-0.04-5.85-0.04-11.7,0-17.56c0.01-1.34-0.54-1.71-1.83-1.63
		c-8.54,0.49-17.08,0.93-25.62,1.34c-1.42,0.07-1.91,0.66-1.9,2.04c0.04,5.25,0.05,10.5,0,15.75c-0.01,1.44,0.57,1.94,1.97,1.93
		C260.52,138.19,264.72,138.22,268.92,138.22z M279.08,113.01c0-0.01,0-0.01,0-0.02c-7.59,0.42-15.18,0.86-22.77,1.24
		c-1.24,0.06-2.01,0.37-1.94,1.81c0.08,1.55,1.1,1.4,2.13,1.34c5.09-0.28,10.19-0.55,15.28-0.83c3.4-0.18,6.79-0.39,10.19-0.55
		c1.16-0.05,1.74-0.49,1.72-1.73c-0.03-1.37-0.85-1.53-1.91-1.46C280.87,112.88,279.98,112.94,279.08,113.01z M254.35,107.38
		c0,1.45-0.01,2.9,0.01,4.35c0.01,0.43-0.08,1.08,0.49,1.1c0.73,0.03,0.58-0.7,0.59-1.15c0.04-2.1,0.01-4.2,0.04-6.3
		c0.03-2.58,0.8-3.48,3.32-3.65c6.58-0.47,13.17-0.88,19.76-1.32c1.25-0.08,2.49-0.21,3.74-0.32c0.24-0.02,0.56-0.03,0.59-0.34
		c0.04-0.4-0.32-0.46-0.62-0.48c-0.45-0.03-0.9-0.04-1.35-0.01c-2.29,0.16-4.59,0.35-6.88,0.51c-5.79,0.41-11.57,0.79-17.36,1.22
		c-1.76,0.13-2.26,0.7-2.32,2.48C254.32,104.78,254.35,106.08,254.35,107.38z"/>
	<path class="st0" d="M237.97,77.38c1.25-0.01,2.37,1.1,2.4,2.37c0.03,1.29-1.05,2.41-2.32,2.42c-1.26,0.01-2.36-1.08-2.38-2.37
		C235.65,78.47,236.67,77.39,237.97,77.38z M239.2,79.75c-0.11-0.65-0.45-1.17-1.23-1.16c-0.7,0.01-1.12,0.44-1.16,1.11
		c-0.05,0.76,0.41,1.24,1.14,1.3C238.71,81.06,239.09,80.55,239.2,79.75z"/>
	<path class="st0" d="M254.35,107.38c0-1.3-0.03-2.6,0.01-3.9c0.05-1.77,0.56-2.35,2.32-2.48c5.78-0.43,11.57-0.82,17.36-1.22
		c2.29-0.16,4.59-0.35,6.88-0.51c0.45-0.03,0.9-0.02,1.35,0.01c0.3,0.02,0.65,0.07,0.62,0.48c-0.03,0.31-0.35,0.32-0.59,0.34
		c-1.24,0.11-2.49,0.24-3.74,0.32c-6.59,0.44-13.17,0.85-19.76,1.32c-2.52,0.18-3.29,1.07-3.32,3.65c-0.02,2.1,0,4.2-0.04,6.3
		c-0.01,0.45,0.13,1.18-0.59,1.15c-0.57-0.02-0.48-0.68-0.49-1.1C254.33,110.28,254.35,108.83,254.35,107.38z"/>
	<path class="st0" d="M269.03,136.54c-3.85,0-7.7-0.03-11.55,0.02c-1.46,0.02-2.08-0.52-2.06-2.02c0.06-4.15,0.04-8.3,0.01-12.45
		c-0.01-1.29,0.45-1.91,1.81-1.97c7.69-0.33,15.38-0.73,23.08-1.07c1.97-0.09,2.19,0.16,2.19,2.1c0.02,4.4,0.02,8.8,0,13.2
		c-0.01,1.85-0.22,2.08-2.08,2.1c-3.8,0.03-7.6,0.01-11.4,0.01C269.03,136.49,269.03,136.51,269.03,136.54z M268.9,135.31
		c0-0.02,0-0.03,0-0.05c3.35,0,6.71,0.01,10.06,0c2.19-0.01,2.34-0.16,2.34-2.29c0.01-3.5,0.01-7.01,0-10.51
		c-0.01-2.08-0.16-2.27-2.24-2.18c-6.85,0.28-13.7,0.63-20.55,0.91c-1.31,0.05-1.89,0.55-1.87,1.91c0.05,3.4,0,6.81,0.02,10.21
		c0.01,1.76,0.25,1.99,2.02,1.99C262.09,135.32,265.5,135.31,268.9,135.31z"/>
	<path class="st0" d="M267.7,133.12c-2.4,0-4.81,0.03-7.21-0.01c-1.95-0.03-2.59-0.69-2.62-2.65c-0.03-1.65,0.01-3.3,0-4.96
		c0-1.45,0.73-2.32,2.15-2.37c5.1-0.2,10.21-0.33,15.31-0.47c0.62-0.02,1.52,0.17,1.57,0.67c0.18,2.18,3.73,1.61,3.31,4.3
		c-0.21,1.35-0.04,2.68-1.96,2.69c-0.46,0-0.64,0.44-0.74,0.84c-0.35,1.35-1.31,1.79-2.59,1.79c-1.2,0-2.4,0.02-3.6,0.03
		c-1.2,0.01-2.4,0-3.6,0C267.7,133.03,267.7,133.08,267.7,133.12z M267.55,131.93c0-0.02,0-0.04,0-0.06c2.35,0,4.7,0,7.05,0
		c1.22,0,1.86-0.57,1.85-1.82c-0.01-1.45-0.02-2.9,0.01-4.35c0.03-1.33-0.59-1.91-1.92-1.87c-4.64,0.14-9.29,0.26-13.94,0.37
		c-1.2,0.03-1.71,0.66-1.72,1.79c-0.01,1.35,0.01,2.7-0.01,4.05c-0.02,1.32,0.62,1.91,1.93,1.89
		C263.05,131.91,265.3,131.93,267.55,131.93z"/>
	<path class="st0" d="M267.55,131.93c-2.25,0-4.5-0.02-6.75,0.01c-1.31,0.02-1.95-0.57-1.93-1.89c0.02-1.35,0-2.7,0.01-4.05
		c0.01-1.13,0.52-1.77,1.72-1.79c4.65-0.11,9.29-0.23,13.94-0.37c1.32-0.04,1.94,0.54,1.92,1.87c-0.03,1.45-0.02,2.9-0.01,4.35
		c0.01,1.25-0.62,1.83-1.85,1.82c-2.35,0-4.7,0-7.05,0C267.55,131.89,267.55,131.91,267.55,131.93z M259.7,127.97
		C259.7,127.97,259.71,127.97,259.7,127.97c0.01,0.65-0.01,1.3,0.01,1.94c0.03,0.98,0.58,1.55,1.53,1.4c1.1-0.18,2.16,0,3.25,0.02
		c5.03,0.11,5.05,0.06,4.82-4.63c-0.08-1.69-0.53-2-2.25-1.98c-1.87,0.02-3.74,0.36-5.62,0.1c-1.09-0.15-1.72,0.35-1.74,1.5
		C259.7,126.88,259.7,127.43,259.7,127.97z M275.99,127.95c0-3.42,0-3.42-3.35-3.36c-3.07,0.06-3.07,0.06-3.06,3.89
		c0.01,2.85,0.04,2.88,2.81,2.76c0.25-0.01,0.5,0.01,0.74,0.04c2.6,0.26,2.84,0.04,2.86-2.58
		C275.99,128.45,275.99,128.2,275.99,127.95z"/>
	<path class="st0" d="M259.7,127.97c0-0.55-0.01-1.1,0-1.65c0.01-1.15,0.64-1.65,1.74-1.5c1.88,0.26,3.75-0.08,5.62-0.1
		c1.72-0.02,2.17,0.29,2.25,1.98c0.23,4.69,0.21,4.74-4.82,4.63c-1.08-0.02-2.15-0.2-3.25-0.02c-0.95,0.15-1.5-0.42-1.53-1.4
		C259.69,129.27,259.71,128.62,259.7,127.97C259.71,127.97,259.7,127.97,259.7,127.97z M261.83,128.07
		c-0.24-0.69,0.34-1.93-0.71-1.98c-0.88-0.04-0.7,1.17-0.7,1.85c0,0.78-0.33,2.09,0.71,2.12
		C262.11,130.08,261.61,128.78,261.83,128.07z M268.47,127.96c-0.45-0.63,0.49-2.1-0.78-2.1c-0.92,0-0.5,1.41-0.51,2.19
		c-0.01,0.71-0.39,1.99,0.58,1.99C268.78,130.05,268.19,128.76,268.47,127.96z M263.8,128.03c0.23,0.66-0.32,1.89,0.58,1.89
		c0.86,0,0.48-1.22,0.49-1.9c0.01-0.64,0.32-1.81-0.43-1.81C263.46,126.21,264.03,127.39,263.8,128.03z"/>
	<path class="st0" d="M275.99,127.95c0,0.25,0,0.5,0,0.75c-0.02,2.63-0.26,2.84-2.86,2.58c-0.25-0.02-0.5-0.05-0.74-0.04
		c-2.77,0.11-2.8,0.09-2.81-2.76c-0.01-3.82-0.01-3.82,3.06-3.89C275.99,124.53,275.99,124.53,275.99,127.95z M271.76,127.89
		c-0.34-0.65,0.37-2.05-0.68-2.06c-1.06-0.01-0.59,1.37-0.58,2.12c0,0.74-0.5,2.08,0.64,2.08
		C272.04,130.03,271.52,128.7,271.76,127.89z M275.04,127.97c-0.31-0.68,0.31-2.12-0.58-2.1c-1.04,0.03-0.54,1.44-0.57,2.24
		c-0.03,0.65-0.34,1.85,0.56,1.83C275.32,129.91,274.8,128.7,275.04,127.97z"/>
	<path class="st0" d="M261.83,128.07c-0.22,0.71,0.29,2.01-0.7,1.99c-1.04-0.02-0.71-1.34-0.71-2.12c0-0.68-0.18-1.89,0.7-1.85
		C262.16,126.14,261.59,127.37,261.83,128.07z"/>
	<path class="st0" d="M268.47,127.96c-0.28,0.79,0.31,2.08-0.71,2.08c-0.97,0-0.59-1.28-0.58-1.99c0.01-0.77-0.41-2.19,0.51-2.19
		C268.96,125.86,268.02,127.33,268.47,127.96z"/>
	<path class="st0" d="M263.8,128.03c0.23-0.64-0.33-1.82,0.64-1.82c0.75,0,0.44,1.17,0.43,1.81c-0.01,0.68,0.36,1.9-0.49,1.9
		C263.47,129.92,264.03,128.7,263.8,128.03z"/>
	<path class="st0" d="M271.76,127.89c-0.24,0.81,0.28,2.14-0.62,2.14c-1.14,0-0.64-1.34-0.64-2.08c0-0.75-0.48-2.13,0.58-2.12
		C272.13,125.84,271.41,127.25,271.76,127.89z"/>
	<path class="st0" d="M275.04,127.97c-0.24,0.74,0.28,1.94-0.59,1.97c-0.9,0.03-0.59-1.17-0.56-1.83c0.03-0.8-0.46-2.21,0.57-2.24
		C275.35,125.84,274.73,127.29,275.04,127.97z"/>
</g>
</svg>
