<?xml version="1.0" encoding="utf-8"?>
<!-- Generator: Adobe Illustrator 26.3.1, SVG Export Plug-In . SVG Version: 6.00 Build 0)  -->
<svg version="1.1" id="Layer_1" xmlns="http://www.w3.org/2000/svg" xmlns:xlink="http://www.w3.org/1999/xlink" x="0px" y="0px"
	 viewBox="0 0 300 300" style="enable-background:new 0 0 300 300;" xml:space="preserve">
<style type="text/css">
	.st0{fill:#F4FFF9;}
	.st1{fill:#4BCB8E;}
</style>
<circle class="st0" cx="147.8" cy="98.1" r="192"/>
<g>
	<path class="st1" d="M232.1,93.7c-0.3,1.5-0.1,2.4-0.1,3.3c0.2,4,0.4,7.9,0.6,11.9c0,1,0.4,1.9,1.1,2.7
		c5.8,6.7,10.6,14.1,15.8,21.2c1.2,1.7,1.6,3.7,1.8,5.7c0.1,1.2,0.7,1.7,1.9,1.7c1.8,0,3.7-0.1,5.6,0c1.6,0.1,2.2-0.6,2.3-2.2
		c0.2-5.8,0.5-11.6,0.8-17.5c0.7-16.9,1.4-33.8,2.1-50.7c0-0.9,0.5-2.3-0.3-2.6c-1-0.3-1.3,1.2-1.8,1.9c-3.8,5.6-7.8,11-12.3,16
		c-1.3,1.5-2.7,2.8-4.3,3.9c-0.7,0.5-1.6,0.9-2.4,0.3c-0.8-0.6-0.6-1.5-0.4-2.3c1-3.6,2.9-6.8,4.8-10c4.5-7.4,9.5-14.5,15.2-21
		c1.1-1.3,1.2-4.6,0.2-6.3c-5.2-8.9-9.5-18.2-12.8-28c-0.7-2-1.2-4-1.4-6c-0.1-1-0.2-2.1,0.9-2.6c1.1-0.5,1.7,0.3,2.4,1
		c3.1,3.4,5.2,7.5,7.3,11.5c3.6,7,6.8,14.1,9.2,21.6c0.6,1.8,3.6,3.8,5.6,3.8c9.9,0,19.7,0.9,29.3,2.9c2.1,0.4,4.2,1,6.2,1.9
		c0.9,0.4,1.9,0.8,1.8,2c-0.1,1.2-1.2,1.5-2.1,1.7c-2,0.5-4,0.6-6,0.6c-10,0.2-19.9-0.8-29.7-2.8c-2.8-0.6-3.1-0.4-3,2.5
		c0.5,16.1,1,32.2,1.9,48.3c0.5,9.6,0.9,19.2,1.3,28.9c0.1,2.9,0.2,3,3.1,3c0.9,0,1.7,0,2.6,0c2.7,0,2.9-0.2,2.9-2.8
		c0-2.2,0-4.4,0-6.5c0-17.3,0-34.6,0-51.9c0-0.7,0-1.3,0-2c0.1-2.5,1.1-3.5,3.6-3.7c5.9-0.4,11.7-0.9,17.6-1.3
		c4.4-0.3,8.8-0.6,13.2-1c2.1-0.2,3.3,0.7,4.7,2.2c2.2,2.6,2.7,5.5,2.7,8.7c-0.1,37.8,0,75.5,0,113.3c0,1.9-0.2,3.6-1.5,5.2
		c-1.9,2.3-3.9,3.3-7,3.1c-9.5-0.8-19-1.4-28.5-2c-0.4,0-0.8-0.1-1.1-0.1c-2.7-0.3-3.5-1.2-3.5-3.9c0-6.2,0-12.4,0-18.6
		c0-0.7,0.2-1.5-0.4-2.2c-0.7,0.6-0.6,1.3-0.8,2c-1,4.9-2.4,9.6-4.6,14.1c-1.1,2.2-2.4,4.3-4.2,6c-0.6,0.6-1,1.2-0.4,2.1
		c0.6,1,0,1.6-0.9,1.8c-2.9,0.8-5.9,0.8-8.9,0.1c-0.6-0.2-1.3-0.5-1.2-1.3c0.1-0.7,0.7-0.8,1.4-1c0.6-0.1,1.3,0.1,2.2-0.4
		c-2.9-0.2-5.5-0.1-8.1,0c-2.3,0.1-4.5,0.2-6.2,2.2c-0.7,0.9-2,1-3.2,1.1c-3.7,0.3-7.5,0.2-11.2-0.2c-2.3-0.2-3.8-1.7-4.7-3.6
		c-0.8-1.6-1.9-2.2-3.6-2.3c-2.7-0.1-5.3-0.1-8,0.3c-3.7,0.6-7.4,0.8-11.1,0.2c-0.8-0.1-1.6-0.1-2.4,0c-5.1,1.1-10.2,2.1-15.3,3.2
		c-2.5,0.5-4.2,2.5-6.3,3.6c-0.4,0.2-0.5,0.9-0.7,1.4c-1.4,4.4-3,8.6-5.8,12.4c-2.2,3-5.1,4.5-8.8,4.5c-4.8,0-9.7-0.3-14.5-0.9
		c-2.8-0.4-4.9-2.1-6.5-4.3c-1.1-1.5-1.9-3.2-2.6-4.9c-0.5-1.1-1.2-1.6-2.4-1.5c-10.3,0.7-20.1-1.9-30-3.9c-1.7-0.3-3.3-0.6-5-0.6
		c-13.1-0.3-26.1-0.8-39.2-1.4c-2.2-0.1-4.4-0.1-6.5-0.4c-2.5-0.4-4.2,0.3-5.6,2.4c-2.7,4-6.7,5.7-11.6,5.5
		c-2.8-0.1-5.5-0.2-8.3-0.2c-2.6,0-5-0.8-7.2-2.2c-2.5-1.5-4.3-3.7-5.7-6.1c-0.6-1.1-1.4-1.9-2.6-2.4c-2.1-0.9-3.2-2.7-4-4.7
		c-1.5-3.8-1.9-7.8-2.4-11.8c-0.8-6.3-0.1-12.5,1.1-18.7c0.2-1.1,0.5-2.2,1-3.3c1-2.3,1.8-4.7,2.4-7.2c0.7-2.7,2.6-4.7,4.1-7
		c2.3-3.5,5-6.7,8-9.7c4.9-4.8,11.2-6.7,17.7-8.3c3.2-0.8,6-2.2,8.5-4.3c10.2-8.3,21-15.9,32.8-21.9c9.3-4.7,19.1-7.9,29.3-9.7
		c21.8-3.9,43.8-4.3,65.9-3.1c7.5,0.4,14.9,1,22.1,3c5.2,1.4,10.1,3.3,14.6,6.3c1.8,1.2,2.1,1,2.2-1c0.4-8.1,0.8-16.2,1.1-24.3
		c0.1-2.5-0.4-3-2.9-3.4c-7.7-1-15.2-2.6-22.6-5.1c-1.4-0.5-2.7-1-4-1.8c-0.7-0.4-1.3-0.9-1.2-1.8c0.2-1,1.1-1.2,1.9-1.2
		c3.9-0.3,7.7,0.3,11.5,1c5.3,0.9,10.5,2.2,15.7,3.9c1.8,0.6,3.8-0.2,5.1-2c4.5-6.1,9.5-11.6,15.2-16.6c1.3-1.2,2.6-2.3,4.2-3.1
		c0.7-0.4,1.6-0.8,2.3-0.1c0.7,0.7,0.4,1.6,0,2.3c-1.7,3.5-4.2,6.5-6.7,9.5c-3.4,4.1-7.1,8-11.1,11.5c-1.8,1.6-2.2,3.8-1.2,6
		c3.3,7.8,5.9,15.8,7.1,24.2c0.1,0.8,0.1,1.6,0.1,2.4c0,0.7-0.3,1.3-1,1.5c-0.7,0.2-1.2-0.2-1.7-0.7c-1.5-1.8-2.3-3.9-3.2-6
		C233.1,96,232.7,95.1,232.1,93.7z M176.6,215.4c-0.1,0.1-0.2,0.1-0.2,0.2c-3.1,2.2-5.9,1.8-8.4-1c-1.4-1.6-2.3-3.5-3.1-5.5
		c-2.1-5.6-2.7-11.4-2.9-17.3c-0.2-7.1,0.6-14.1,3.2-20.8c1-2.7,2.3-5.3,4.6-7.2c2.1-1.8,4.2-1.9,6.6-0.7c1.8,0.9,2.7,2.6,3.7,4.2
		c1.2,2.2,1.7,4.6,2.9,6.9c-0.7-2.7-1.1-5.5-2.5-7.9c-0.4-0.7-0.7-1.5-1.1-2.2c-1.9-3.8-4.7-6.3-9.4-5.9c-0.8,0.1-1.6,0.1-2.4,0
		c-1.8-0.2-2.9,0.6-3.7,2.2c-2.5,5.1-4.1,10.4-5.2,15.9c-1.9,8.9-2.1,17.9-2.3,26.9c-0.1,5-1.6,6.7-6.4,7.6
		c-3.8,0.7-3.7,0.7-1.9,4.1c1.9,3.6,4.7,5.9,9,6c4,0.1,8,0.4,12.1,0.5c3.4,0.1,6.1-1.3,7.9-4.3c0.9-1.5,1.8-3.1,2.7-4.6
		c1.5-2.2,1.9-4.7,2.6-7.2c-0.9,2.4-2.1,4.6-3.2,6.9c-0.4,0.6-0.9,1.2-1.3,1.7c-0.1,0.1-0.1,0.1-0.2,0.2c0,0.1-0.1,0.1-0.1,0.2
		c-0.1,0-0.1,0.1-0.2,0.2c-0.1,0.1-0.1,0.1-0.2,0.2c-0.1,0-0.1,0.1-0.2,0.2c-0.1,0.1-0.1,0.1-0.2,0.2c-0.1,0-0.1,0.1-0.2,0.2
		C176.7,215.3,176.6,215.4,176.6,215.4z M206,100.7L206,100.7c-0.1,0-0.1-0.1-0.1-0.1C205.9,100.6,206,100.6,206,100.7z
		 M245.3,151.4c2.1-2.3,4.5-2.4,7-0.5c-0.6-1.5-1.4-2.8-3-3.1c-1.6-0.3-2.7,0.8-3.6,2.1c-0.3,0.4-0.3,0.9-0.5,1.4
		C245,151.4,245.1,151.5,245.3,151.4z M158.3,171.9c0-0.1,0-0.3,0-0.4c0.1-0.3,0.2-0.6,0.3-0.9c0-0.2,0-0.3,0-0.4
		c0.1-0.2,0.2-0.4,0.3-0.6c0-0.1,0-0.3,0.1-0.4c0.2-0.7,0.4-1.3,0.7-2c1.7-5.4,4.1-10.3,8.2-14.2c3-2.8,6.6-2.8,9.7-0.1
		c0.8,0.7,1.5,1.5,2.1,2.3c1.9,2.3,2.7,5.1,4,7.6c0,0.1,0,0.3,0,0.4c0.1,0.2,0.1,0.5,0.2,0.7c0,0.1,0.1,0.2,0.2,0.3
		c0.1,0.3,0.2,0.6,0.3,1c0.5,2.2,0.9,4.4,1.4,6.6c0-2.2,0.1-4.5-0.9-6.5c0-0.2-0.1-0.4-0.1-0.6c0-0.1,0-0.3,0-0.4
		c-0.1-0.3-0.1-0.7-0.2-1c-0.1-0.1-0.1-0.2-0.2-0.3c-0.2-0.7-0.3-1.3-0.5-2c0-0.1-0.1-0.2-0.2-0.3c0-0.1-0.1-0.2-0.1-0.3
		c-0.1-0.2-0.2-0.4-0.2-0.6c-1-2-1.9-4-3-6c-3-5.2-8.2-6.6-12.4-3.1c-4.9,4.1-7.2,9.8-8.8,15.8c-0.2,0.4-0.3,0.7-0.5,1.1
		c0,0.2-0.1,0.4-0.1,0.7c0,0.1,0,0.3-0.1,0.4c-0.1,0.3-0.2,0.6-0.3,0.9c-0.1,0.2-0.2,0.4-0.2,0.7c0,0.2-0.1,0.4-0.1,0.7
		c0,0.1,0,0.3,0,0.4c-0.1,0.3-0.1,0.6-0.2,0.9c-0.2,0.5-0.4,1-0.5,1.5c-1.4,6.4-2.1,12.9-2.5,19.4c-0.3,4-0.2,8.1-0.8,12.1
		c-0.2,1-0.7,2-0.6,3.3c1.2-0.6,1.6-1.5,1.7-2.6c0.2-1.9,0.3-3.9,0.3-5.9c0-6.8,0.4-13.6,1.6-20.3
		C157.4,176.9,157.8,174.4,158.3,171.9L158.3,171.9z M18.5,196.1c0.8,3,2.6,4.8,5.7,5.3c1.8,0.3,3.5,0.7,5.3,0.9
		c2.2,0.3,4.5,0.4,6.6-0.4c0.4-0.2,1.1-0.3,1.1-0.8c0-0.7-0.8-0.4-1.2-0.5c-4.2-0.5-8.3-1.1-12.4-2c-2-0.4-3.5-1.4-4.6-3.1
		c-0.1-0.3-0.2-0.9-0.6-0.7C17.9,195.1,18.3,195.7,18.5,196.1z M172.4,164c-1.8,0.3-2.7,1.7-3.7,3c-1.8,2.6-2.9,5.6-3.7,8.7
		c-0.3,1.2-0.8,2.3,0.8,3.1c0.5,0.2,0.5,0.9,0.5,1.5c0.1,1.1,0.2,2.3,0.3,3.4c0.1,1.1,0.5,2.1,1.7,2.1c1.1,0,1.4-1.1,1.6-2
		c0.1-0.2,0.1-0.4,0.1-0.6C170.8,176.8,171.6,170.4,172.4,164L172.4,164z M134.4,171.8c1.6,0.3,2.8,1.1,3.6,2.6
		c0.5,0.9,0.9,0.9,1.6,0.2c2.8-2.9,6.1-5.2,9.5-7.4c0.4-0.3,1-0.4,1.3-1.3c-10.3,1.6-20.4,3.1-30.6,4.6c-0.1,0.1-0.2,0.1-0.3,0.2
		c-0.5,0-1.1,0.1-1.6,0.1c-0.2,0.1-0.4,0.1-0.6,0.2c-0.4,0-0.8,0.1-1.2,0.1c-1.3,0.2-2.6,0.4-4,0.5c0,0.1,0,0.2,0,0.2
		c1.3,0,2.6,0,3.9,0c2.3,0,4.6,0,6.9-0.1c1.3,0.1,2.6,0.2,3.9-0.2c2.4,0,4.8,0,7.1,0C134,171.6,134.2,171.7,134.4,171.8z
		 M269.7,86.3c-0.1-0.2-0.1-0.6-0.4-0.5c-0.1,0-0.2,0.3-0.3,0.5c-0.4,2-0.3,4,0.1,6c0,3.4-0.1,6.9,0.3,10.3c-0.4,2.7-0.4,5.3,0,8
		c0,10.6,0,21.3,0,31.9c-0.4,2.1-0.4,4.2,0,6.3c0,1,0.5,1.2,1.4,1c1.6-0.5,2-1.6,1.9-3.1c-0.6-12.7-1.2-25.4-1.7-38.1
		c0.1-0.8,0.1-1.5-0.2-2.3c0-1.4-0.1-2.8-0.1-4.3c0.1-1,0.1-2-0.2-2.9c0-1.2-0.1-2.4-0.1-3.6c0.1-0.9,0.1-1.7-0.2-2.6
		c-0.1-1.6-0.1-3.3-0.2-4.9C269.9,87.3,269.9,86.8,269.7,86.3z M252.7,160.7c0.2,0.6,0.2,1.4,0.9,2c0.1-1-0.3-1.6-0.6-2.3
		c-0.3-0.9-0.6-1.8-0.8-2.7c0-0.1-0.1-0.2-0.2-0.2c-1.7-2.9-2.5-3.4-5.6-3c-2.3,0.3-2,2.5-2.8,4c-0.1,0.2-0.1,0.5-0.2,0.8
		c-2,7.6-2.7,15.3-3.5,23c-0.2,2.4-0.2,4.9-1.1,7.2c-0.7,1.7-1.8,2.8-3.7,2.9c-1.1,0.1-2.3,0.2-3.4,0.3c-1,0.1-1.5,0.5-1.2,1.6
		c0.5,1.9,1.2,3.7,2.3,5.4c0.7,1,1.5,1.9,2.8,2.1c4.1,0.3,8.3,0.5,12.4,0c1.8-0.2,3.2-1.9,3.3-3.6c-3,1.3-4.4,0.8-6-2.2
		c-0.7-1.4-1.2-2.8-1.5-4.3c-1.7-7-1.9-14.1-1-21.2c0.4-3.5,1.1-7,2.8-10.2c1.8-3.3,3.9-3.5,6.3-0.8c0,0.1,0.1,0.2,0.2,0.2
		C252.3,160,252.5,160.4,252.7,160.7z M197.7,97.3c2.5,0.3,5.1,0.4,7.6,0.8c9.3,1.5,17.4,5,23.5,12.7c5.2,6.6,10.2,13.2,13.3,21
		c1,2.6,1.3,2.6,4,2.1c1.8-0.3,1.9-0.7,0.9-2.2c-2.8-4-5.7-7.9-8.6-11.9c-3.2-4.5-6.8-8.8-10.9-12.6c-8.5-7.7-18.8-11.4-30-12.2
		c-9.2-0.7-16.6,2.7-21.4,11.1c-3.5,6.2-7.2,12.3-10.2,18.8c-1.3,2.7-3.2,4-6.2,4.3c-13.9,1.3-27.9,2.1-41.8,2.8
		c-13.3,0.7-26.5,0.8-39.8,0.6c-6.2-0.1-12.4,0.4-18.4-0.7c-3.6-0.7-6.7,0.1-10,0.9c-3.1,0.7-6.1,1.7-9,2.9c-2.7,1-5,2.5-7.1,4.5
		c-0.3,0.3-0.9,0.6-0.8,1.2c0.1,0.6,0.7,0.6,1.2,0.7c3.7,0.9,7.3,1.7,11,2.6c1.1,0.2,2.1,0.5,3,1.2c1.8,1.4,1.8,2.9-0.2,4.1
		c-3.1,1.9-6.2,3.7-9.3,5.5c-1.7,1-3.4,1.3-5.3,1.1c-3.3-0.3-6.5-0.8-9.6-2c-1-0.4-1.6,0-1.9,0.8c-0.5,1.1,0.4,1.3,1.2,1.5
		c1.2,0.3,2.3,0.5,3.5,0.7c15.3,2.8,30.7,3.3,46.2,3.5c17.9,0.2,35.8,0,53.7-1.3c11.2-0.8,22.4-1.8,33.4-4.5c2-0.5,3.7-1.2,4.8-3
		c0.6-1,1.5-1.8,2.5-2.6c3.1-2.6,6.5-3.5,10.2-1.4c0.8,0.5,1.6,0.4,2.5,0.1c2-0.6,4-1.3,6.1-1.8c1.4-0.3,1.9-1,1.6-2.4
		c-0.6-2.7-0.9-5.5-0.9-8.3c0.1-1.8-0.7-2.5-2.4-2.8c-3.7-0.8-7.3-1.8-10.9-2.7c-1.9-0.5-2.2-1.2-1.5-3c0.8-1.9,1.6-3.8,2.5-5.7
		c2.9-6.4,6-12.5,10.4-18.1C187.8,99.2,192.2,97.1,197.7,97.3z M188.5,94.3c-0.4-0.6-0.9-0.4-1.3-0.5c-20.6-1.2-41.2-0.9-61.7,2.1
		c-10.8,1.6-21.3,4.5-31.2,9.1c-12.7,5.9-24,13.9-34.8,22.6c-0.8,0.6-2.4,1.1-1.9,2.3c0.4,1,1.9,0.7,3,0.8c7.5,0.5,15,0.4,22.5,0.6
		c15.9,0.3,31.8-0.4,47.6-1.3c9.7-0.6,19.3-1.2,29-2.1c2.5-0.2,4-1.4,5.1-3.7c2.8-6,6.1-11.6,9.4-17.4c3.2-5.7,7.4-10.2,13.8-12.1
		C188.1,94.6,188.2,94.5,188.5,94.3z M103.2,202.6c0.4,1.2,1,1.2,1.7,1.2c8.3,0.4,16.6,0.5,25,0.3c2.1,0,3.6-1.1,4.5-3
		c0.8-1.7,1.3-3.5,1.6-5.3c1-5.5,1.2-11,1.2-16.6c0-5.7-0.8-6.6-6.5-6.5c-12.9,0.2-25.8,0.3-38.7,0.7c-20.2,0.5-40.3-0.6-60.4-3.2
		c-3.4-0.4-6.9-1.1-10.4-1c-1.8,0-2.6,0.7-2.6,2.4c-0.2,7.2,0,14.4,1.3,21.5c0.4,2.2,1.6,3.6,3.9,4.1c4.2,0.8,8.3,1.6,12.6,2
		c0.9,0.1,1.9,0.1,2.9-0.4c-0.5-0.6-1.1-0.5-1.6-0.6c-3.8-0.6-7.5-1.2-11.3-1.9c-3-0.6-4.3-2.1-4.5-5.1c-0.1-2,0.3-2.4,2.3-2.3
		c4.9,0.4,9.9,0.8,14.8,1.1c12.2,0.8,24.4,1.7,36.6,2.3c14.1,0.7,28.3,1.2,42.4,1.8c4,0.2,7.9,0.4,11.9,0.5c1.1,0.1,2.1,0.3,2.5,1.5
		c0.7,2.1-1.2,5.5-3.4,5.9c-1.2,0.2-2.4,0.3-3.6,0.4c-4.3,0.1-8.6,0.1-12.9,0.1C109.3,202.6,106.3,202.6,103.2,202.6z M112.6,205.8
		c2.2,0.8,4.3,1,6.4,1.5c8.8,1.9,17.6,3.3,26.7,2.7c4.8-0.3,6.7-1.7,7.1-6.4c0.3-3.5,0.4-7.1,0.6-10.6c0.8-12.1,2.4-24,7.5-35.2
		c0.2-0.4,0.5-0.8,0.2-1.2c-0.3-0.4-0.8-0.1-1.2,0c-3.1,0.8-6.3,1.4-9.4,1.9c-18.1,2.9-36.4,3.5-54.7,3.8c-15.5,0.3-31,0.3-46.5-0.8
		c-9-0.6-17.9-1.5-26.7-3.4c-0.7-0.1-1.5-0.5-1.9,0.3c-0.5,0.9-0.7,1.9,0,2.8c0.5,0.7,1.2,1.2,2,1.7c1.8,1.1,3.8,1.9,5.8,2.6
		c4,1.3,8.2,1.9,11.8,4.3c0.4,0.3,1,0.3,1.6,0.4c10.2,1.1,20.4,2.2,30.8,2.1c8.5,0,17,0,25.5-0.1c1,0,2.1-0.1,3.1-0.2
		c17-2.6,34-5.2,51-7.8c1-0.1,2.5-1,2.9,0.3c0.4,1.1-1.3,1.4-2.1,1.9c-4.3,2.7-8.6,5.3-12.2,9c-1.3,1.4-2.2,2.9-2.1,4.9
		c0.1,2.1-0.1,4.2-0.3,6.4c-0.3,4.6-0.7,9.1-2,13.5c-1.2,3.9-3.3,5.4-7.3,5.5c-4.8,0-9.7,0-14.5,0
		C113.9,205.5,113.3,205.4,112.6,205.8z M220.7,150.4c0-2.7,0-5.4,0-8.2c0-1.4-0.6-1.8-2-1.5c-9.2,2.1-18.4,4.1-27.6,6.1
		c-1.4,0.3-1.9,1-1.7,2.4c0.4,3,0.6,6.1,0.6,9.1c0,7,0,13.9,0,20.9c0,5.8-0.1,11.6-0.8,17.4c-0.1,0.8-0.8,2,0,2.4
		c0.7,0.3,1.3-0.9,1.8-1.6c3.4-3.8,7.1-7.2,12.2-8.8c4.7-1.5,9.4-3.2,14.2-4.3c1.4-0.3,2-0.9,1.6-2.5c-0.7-2.9-0.6-5.9-0.1-8.9
		C220.2,165.5,220.8,158,220.7,150.4z M282.2,154.4c0-3.3,0-6.5,0-9.8c0-2.8-0.1-2.9-3-2.9c-1.2,0-2.5,0-3.8,0
		c-1.1,0-1.6,0.6-1.6,1.6c0,1.4,0,2.7,0.1,4.1c0.2,1.5-0.5,2.5-1.8,3.1c-3.3,1.5-6.6,1.5-10,0.2c-1.2-0.4-1.7-1.3-1.6-2.5
		c0.1-1.5,0.1-3,0.3-4.6c0.1-1.5-0.5-2.1-2-2c-1.7,0-3.5,0-5.2,0c-1.7,0-2.1,0.6-1.6,2.3c0.4,1.2,0.9,2.3,1.3,3.5
		c3.6,9.4,5.5,19,4.2,29.1c-0.3,2.1-0.7,4.2-0.9,6.3c-0.3,4.8-1.2,9.5-2.9,14c-0.7,2-0.6,2.2,1.6,2.1c3.7-0.2,7.5-0.7,11.1,0
		c3.1,0.7,4.7-0.7,6.4-2.7c2.2-2.8,3.6-6,4.7-9.3C281,176.4,282.1,165.5,282.2,154.4z M243.9,146.4c0.1-3-0.4-5.8-0.8-8.5
		c-0.2-1.4-0.8-1.9-2.3-1.6c-5.3,1.1-10.6,2.2-15.8,3.2c-3,0.6-3,0.6-2.9,3.7c0.5,9.8-0.1,19.5-1.7,29.1c-0.5,3.2-0.5,6.3,0,9.4
		c0.2,1.3,0.7,1.9,2.2,1.7c1.3-0.2,2.6-0.2,3.9-0.3c1.4,0,2.7,0.3,3.7,1.3c1.4,1.5,2.6,3.1,3.3,5c0.3,0.7,0.4,1.7,1.5,1.6
		c1.1,0,1.9-0.5,2.3-1.5c0.5-1.1,0.8-2.3,0.9-3.5c0.5-4.9,1.1-9.8,1.4-14.8c0.4-6.1,0.8-12.2,3-18
		C243.6,151,244.1,148.7,243.9,146.4z M197.4,98.7c-2.9,0-5.6,0.4-8.1,1.9c-1.4,0.9-2,1.9-1.8,3.6c0.7,6.5,1.1,13.1,0.9,19.7
		c-0.1,2.3-0.1,4.7-0.2,7c0,0.8-0.1,1.7,1,1.9c2.2,0.5,4.4,1.2,6.7,0.8c5.2-0.9,10.5-1.8,15.8-2.7c2.1-0.4,2.2-0.5,1.6-2.6
		c-2.6-9.4-6-18.5-10.5-27.2c-0.9-1.8-2.1-2.7-4-2.6C198.3,98.8,197.9,98.7,197.4,98.7z M115.9,201.3c3.6,0.1,7.2-0.2,10.8-0.4
		c0.7,0,1.3-0.1,1.9-0.2c1.3-0.3,2.5-2.1,2.3-3.5c-0.2-1.6-1.6-1-2.5-1.1c-3.3-0.2-6.5-0.2-9.8-0.4c-16-0.7-32-1.5-47.9-2.2
		c-11.1-0.5-22.3-1.3-33.4-2.2c-4.1-0.3-8.2-0.6-12.4-0.9c-1.6-0.1-1.9,0.4-1.6,1.9c0.3,1.5,1.3,2.3,2.8,2.6
		c6.5,1.3,13.1,2.3,19.7,3.1c9.5,1.2,19.1,1.9,28.6,2.5c7.8,0.5,15.5,1.2,23.3,1.1C103.8,201.5,109.8,201.1,115.9,201.3z
		 M220.9,129.5c1.3-0.3,3.2-0.9,5-1c3.7-0.3,5.9-2.3,7.4-5.6c0.2-0.3,0.3-0.7,0.5-1c0.6-1,0.5-1.9-0.3-2.8c-2.3-2.9-4.7-5.7-6.9-8.7
		c-4.4-5.7-10.6-8.3-17.2-10.1c-0.5-0.1-1.1-0.4-1.5,0c-0.5,0.5,0.1,1,0.3,1.5c1.4,3,3,5.9,4.4,8.9c2.5,5.6,4.5,11.3,6.2,17.1
		C219,128.7,219.1,129.6,220.9,129.5z M266.9,61.2c-1.4,1.2-1.4,2.4-1.5,3.8c-0.3,9-0.7,17.9-1.1,26.9c-0.8,18.4-1.6,36.8-2.5,55.3
		c-0.1,1.6,0.5,2.5,2,2.8c0.6,0.1,1.2,0.2,1.8,0.3c1.3,0.2,2.1-0.3,2.1-1.7c0-1,0.1-2.1,0.1-3.1c0.4-27.5-0.4-55-0.9-82.6
		C267,62.4,267,62,266.9,61.2z M319.6,137.2c0-20.4,0-40.8,0-61.2c0-3.7-0.3-4-4.1-3.7c-9.6,0.7-19.2,1.4-28.8,2.2
		c-2.8,0.2-3.1,0.5-3.1,3.4c0,39.7,0,79.3,0,119c0,0.5,0,1,0,1.5c0.1,1.2,0.7,1.9,2,1.9c10,0.4,20,1.3,30,2c3.8,0.2,4,0,4-3.7
		C319.6,178,319.6,157.6,319.6,137.2z M188.8,134.3c-1-0.1-1.2,0.6-1.2,1.3c0,2.7,0.2,5.4,0.8,8.1c0.5,1.9,0.8,2.2,2.7,1.7
		c3-0.7,6.1-1.3,9.1-2c5.9-1.3,11.9-2.6,17.8-3.9c1.6-0.3,1.7-0.7,1-2.1c-0.7-1.4-1.4-2.7-2-4.1c-0.5-1.2-1.2-1.6-2.5-1.4
		c-3.2,0.6-6.3,1.2-9.5,1.6c-5.3,0.8-10.5,2.6-15.9,0.8C189.1,134.3,188.9,134.3,188.8,134.3z M192.9,199.2c0.5-0.1,1.1-0.2,1.7-0.3
		c7.2-1.5,14.5-3,21.6-4.9c4.7-1.2,9.3-2.6,14-3.9c0.9-0.2,1.7-0.5,1.1-1.8c-1.3-2.7-3-3.8-5.9-3.7c-0.9,0-1.9,0.1-2.8,0.2
		c-7.4,1.3-14.6,3.6-21.5,6.3c-3.6,1.4-6.1,4.2-8.7,7c-0.2,0.2-0.5,0.5-0.3,0.9C192.3,199.2,192.6,199.2,192.9,199.2z M185.5,122
		c0.1,0,0.1,0,0.2,0c0-1.8,0.1-3.7,0-5.5c-0.2-3.2-0.4-6.3-0.6-9.4c0-0.4,0-0.8-0.4-1c-0.5-0.1-0.6,0.3-0.9,0.6
		c-0.2,0.2-0.3,0.4-0.5,0.7c-4.3,6.2-7.3,13.1-10.2,20c-0.4,1.1-0.1,1.7,1,1.9c3.2,0.8,6.4,1.7,9.6,2.5c1.2,0.3,1.9-0.1,1.9-1.4
		C185.5,127.5,185.5,124.7,185.5,122z M42.1,211.6c1.1,0,2.4,0,3.7,0c4.1,0.1,7.5-1.4,10-4.8c0.4-0.5,1.1-0.9,0.9-1.7
		c-0.3-0.7-1.1-0.5-1.7-0.6c-2.8-0.2-5.6-0.4-8.5-0.7c-4.5-0.4-8.9-1.2-13.4-0.2c-2.1,0.5-4.3-0.1-6.5-0.5c-0.4-0.1-0.8-0.2-1.1,0.1
		c-0.3,0.4,0,0.7,0.2,1c2.3,3.6,5.4,6.3,9.9,6.8C37.6,211.4,39.7,211.4,42.1,211.6z M320.8,137.6c0,19.7,0,39.4,0,59.1
		c0,0.5,0,1.1,0,1.6c0,0.4,0,0.8,0.5,0.9c0.4,0,0.5-0.3,0.7-0.6c0.7-1.2,0.5-2.5,0.5-3.8c0-38.4,0-76.7,0-115.1c0-0.6,0-1.2-0.1-1.8
		c-0.1-0.8-0.3-1.8-1.2-1.7c-0.7,0.1-0.4,1.1-0.5,1.7c-0.1,0.6,0,1.2,0,1.8C320.8,98.9,320.8,118.3,320.8,137.6z M222.4,138.6
		c6.2-1.3,12.4-2.6,18.5-3.9c1-0.2,0.7-0.9,0.4-1.5c-1.4-2.9-2.6-6-4.3-8.8c-1.6-2.6-1.6-2.6-3.1-0.1c-1.4,2.4-2.8,4.4-5.9,4.9
		c-3,0.4-5.8,1.2-8.8,1.9c-0.8,0.2-1.5,0.5-1,1.5c0.7,1.7,1.5,3.5,2.6,5.1C221.2,138.3,221.7,138.6,222.4,138.6z M34,155.1
		c1.3,0.1,2.5-0.3,3.6-0.9c2.8-1.6,5.6-3.2,8.3-4.8c0.7-0.4,1.8-0.7,1.7-1.8c-0.2-1.1-1.3-1.3-2.2-1.7c-0.2-0.1-0.3-0.1-0.5-0.1
		c-4.2-1-8.4-1.9-12.6-2.9c-1-0.3-1.8,0-2.4,0.8c-2.1,2.4-4,4.9-5.7,7.5c-0.9,1.4-0.7,1.9,0.8,2.4C27.9,154.4,30.9,154.9,34,155.1z
		 M103.5,205.4c-3.1-1.1-6-2.7-9.5-2.6c-3,0.1-6.1-0.2-9.1-0.4c-13.1-0.8-26.1-1.7-39.2-3.1c-1.9-0.2-3.4,0.5-4.9,1.5
		c-0.3,0.2-0.6,0.3-0.6,0.7c0.1,0.4,0.5,0.4,0.8,0.5c0.4,0.1,0.7,0.1,1.1,0.1c9.2,1,18.4,1.5,27.6,2c10,0.5,20.1,0.8,30.1,1.2
		C101.1,205.4,102.3,205.4,103.5,205.4z M183.1,185.7c-1.9,1.6-1.9,1.7-3.4-0.1c-0.6-0.8-1.2-0.8-1.9-0.2c-1.2,1-2.5,2-3.6,3.1
		c-1.3,1.4-2,3.3-1.2,5c2,4.2,4.4,8.2,6.7,12.3c0.4,0.8,0.9,0.6,1.1-0.1c0.4-1.4,0.8-2.8,1.2-4.2
		C183.1,196.3,183.4,191.2,183.1,185.7z M188.7,173.5c0-5.2,0-10.3,0-15.5c0-2.9-0.2-5.8-0.5-8.6c-0.2-1.3-0.8-1.8-2.1-1.4
		c-1.7,0.5-3.5,1-5.2,1.5c-1,0.3-1.3,0.8-0.6,1.8c3.7,4.5,5.4,9.9,6.4,15.5c2.1,11.3,1.1,22.5-1.4,33.7c-0.1,0.4-0.2,0.7-0.2,1.1
		c-0.1,0.3-0.1,0.6,0.2,0.7c0.3,0.2,0.6,0,0.9-0.2c0.4-0.3,0.7-0.8,0.9-1.4c0.5-1.5,0.8-3.1,1-4.6
		C188.9,188.5,188.7,181,188.7,173.5z M253.2,25c-0.9,0-1,0.2-0.5,1.6c2.9,7.6,6.4,15,10.5,22.1c0.6,1,1.1,1.6,2.5,1
		c1.4-0.6,1.3-1.4,0.9-2.6c-2.2-6.4-4.9-12.6-7.9-18.6C257.5,26.1,254.8,26.1,253.2,25z M250.2,75.9c0.1,0.9,0.3,2.1,0.5,3.4
		c0.1,0.5,0,1.1,0.6,1.2c0.6,0.1,0.8-0.4,1.1-0.8c4.8-6.2,9.3-12.6,13.2-19.4c0.6-1,0.7-1.7-0.4-2.6c-1.2-0.8-1.8-0.7-2.7,0.3
		c-4.2,5-8.2,10.3-11.7,15.9C250.5,74.4,250.1,74.9,250.2,75.9z M172,183.5c0,1.1-0.1,1.8,0.6,2.2c0.8,0.5,1.3-0.4,1.8-0.8
		c2.3-2,4.5-4,6.7-5.9c0.8-0.7,1.1-1.4,0.8-2.4c-0.5-2.4-1.2-4.8-2.2-7.1c-0.6-1.3-1.3-2.6-2.3-3.7c-0.3-0.3-0.5-0.8-1-0.6
		c-0.4,0.2-0.2,0.7-0.1,1c0.4,1.3-0.1,2.3-0.8,3.3c-0.8,1.1-1.8,2.1-2,3.5C173,176.6,172.5,180.2,172,183.5z M277.1,52.7
		c-1.1,0-2.2,0-3.3,0c-1,0-1.4,0.5-1.6,1.5c-0.3,1.6,0.4,2.1,1.8,2.4c7.1,1.4,14.2,2.1,21.3,2.5c0.9,0.1,2.2,0.6,2.7-0.3
		c0.4-0.8-0.9-1.4-1.4-2.2c-1.2-1.8-2.8-2.7-5-2.9C286.9,53.3,282,52.8,277.1,52.7z M172.6,215.7c1.7,0,2.8-1,3.9-2.1
		c1-0.9,1.2-1.8,0.2-2.9c-1.3-1.3-1.7-2.8-1.5-4.6c0.2-2.4-0.3-4.5-1.5-6.5c-0.6-1-1-2.1-1.5-3c-0.3-0.5-0.4-1.5-1.2-1.3
		c-0.7,0.1-0.5,1-0.5,1.6c-0.5,5-0.9,9.9-1.4,14.9C168.8,214.1,170.2,215.7,172.6,215.7z M184.7,174.4c-0.4-5.7-1.8-11.1-4.5-16.2
		c-0.9-1.6-1.9-3.2-3.3-4.4c-2.6-2.3-5.3-2.3-7.9-0.1c-0.8,0.7-2.3,1.5-1.9,2.6c0.4,1.1,2,0.6,2.9,0.5c5-0.4,8.2,2.1,10.5,6.2
		C182.4,166.6,183.6,170.5,184.7,174.4z M166,207.2c-0.2-2,1.1-3.5,1.4-5.3c0.6-3.2,0.8-6.5,1-9.7c0.1-2.4-0.8-4-3-5.1
		c-1.8-0.8-2-0.8-2.1,1.2c-0.1,5.6,0.3,11.2,1.6,16.7C165.1,205.8,165.2,206.6,166,207.2z M243.9,55c0-1.6-0.1-2.1-0.4-2.2
		c-0.8-0.1-1.2,0.6-1.7,1.1c-3.9,3.9-7.6,8-10.9,12.4c-0.5,0.7-1.1,1.4-0.2,2.3c1,0.9,1.6,0.1,2.2-0.5c3.5-3.2,6.8-6.6,9.8-10.2
		C243.6,57,244.1,56,243.9,55z M223,71.7c0.8,0.1,1.4,0,1.6-0.9c0.2-1-0.3-1.4-1.1-1.7c-4.3-1.4-8.7-2.3-13.1-3.4
		c-1.9-0.4-3.4,0-4.9,1.1c-0.3,0.2-0.7,0.3-0.7,0.8c0.1,0.5,0.5,0.5,0.9,0.6C211.4,69.8,217.1,71,223,71.7z M235.9,90.4
		c-0.1-0.4-0.1-0.7-0.2-1.1c-1.3-4.4-2.7-8.7-4.5-12.9c-0.3-0.8-0.7-1.7-1.9-1.3c-1.2,0.4-0.9,1.3-0.7,2.1
		c1.2,5.3,2.7,10.4,4.6,15.5c0.1,0.4,0.3,0.7,0.5,1c0.3,0.4,0.7,0.5,0.9,0C235.1,92.7,235.7,91.7,235.9,90.4z M252.6,189.8
		c0.8-0.7,0.8-1.3,0.9-1.9c0.5-3,0.6-6,0.9-9.1c0.2-2-1.5-2.3-2.4-3.2c-0.2-0.2-0.5,0-0.7,0.1c-1.8,0.9-3.1,3.6-2.4,5.6
		C249.9,184.2,251.3,186.9,252.6,189.8z M251.8,147.3c-1-2.3-1.3-4.6-1.8-6.8c-0.1-0.2-0.3-0.5-0.5-0.6c-1.7-0.6-2.2-2.1-2.9-3.5
		c-0.3-0.6-0.5-1.1-1.3-0.9c-0.8,0.2-1.1,0.7-0.9,1.5c0.5,3.3,1,6.5,1,9.9c0,0.5,0.2,1.1,0.9,0.7
		C247.9,146.2,249.7,146.2,251.8,147.3z M227.7,79.5c-0.5,0.2-0.4,0.6-0.4,0.9c-0.4,7.4-0.8,14.8-1.2,22.2c0,0.4-0.1,0.9,0.1,1.3
		c0.4,0.9,1.2,1.9,2.1,1.8c0.9-0.1,0.5-1.3,0.5-2c-0.1-6.7-0.2-13.5-0.4-20.2C228.4,82.1,228.2,80.8,227.7,79.5z M36.3,169.5
		c-0.9-0.8-1.7-0.9-2.4-1.1c-4.8-1.3-9.7-2.4-13.7-5.7c-0.5-0.4-1-0.3-1.2,0.3c-0.7,1.6-1.3,3.3-1.6,5.1c-0.1,0.6,0.3,1,0.9,0.7
		c2.2-1.3,4.4-0.8,6.7-0.5C28.7,168.6,32.3,169,36.3,169.5z M251.7,161.8c-0.3,0.3-0.4,0.4-0.5,0.5c-2.6,3.4-2.2,7.5-2.8,11.3
		c-0.1,0.8,0.5,0.9,1,0.4c1.3-1.3,2.6-2.7,3.9-4.1c0.3-0.3,0.4-0.7,0.3-1.1C253.2,166.5,252.7,164.2,251.7,161.8z M211.5,196.5
		c1.3,0.6,2.3,0.5,3.2,0.4c4.5-0.4,8.9-1.3,13.5-0.8c0.8,0.1,1.2-0.2,1-1.2c-0.4-2.1-1.2-2.8-3.3-2.2
		C221.3,193.9,216.7,195.1,211.5,196.5z M247.7,183.8c-0.5,0.4-0.5,0.7-0.5,1c-0.2,3.4,0.3,6.9-0.5,10.4c-0.2,1.1,0.7,1.9,1.7,2.3
		c0.9,0.4,1.5-0.2,2.1-0.8c0.7-0.8,1-1.6,0.2-2.5c-1-1.2-1.2-2.6-1.1-4.1C249.9,187.7,248.8,185.8,247.7,183.8z M247.9,159.8
		c-1.1,0.4-1.2,1.2-1.5,1.7c-2.4,4-1.5,8.2-1,12.4c0,0.3,0.2,0.6,0.5,0.6c0.5,0,0.6-0.4,0.6-0.8c0.2-1.9,0.5-3.8,0.7-5.7
		C247.4,165.4,247.8,162.7,247.9,159.8z M206.7,102.2c4.1,8.8,7.4,18,10.7,27.2C215.4,119.8,211.4,110.9,206.7,102.2z M16.8,172.4
		c-0.2,0.4-0.3,0.6-0.3,0.8c-1.1,6.6-0.3,13.2,1,19.7c0.1,0.3,0.2,0.8,0.5,0.7c0.7-0.2,0.3-0.8,0.3-1.2c-0.8-6-1.1-12.1-1.2-18.2
		C17.2,173.7,17.3,173.1,16.8,172.4z M205.1,102.4c-0.3,0.8,0.2,1.2,0.4,1.7c2.6,5.3,4.8,10.8,6.6,16.5c0.9,2.8,1.7,5.7,2.6,8.6
		c0.1,0.4,0.2,1.1,0.9,0.9c0.5-0.2,0.2-0.7,0.1-1.2c0-0.2-0.1-0.4-0.2-0.6c-2.4-7.5-5-14.9-8.4-22
		C206.5,104.9,206.1,103.6,205.1,102.4z M230.3,88.5c-0.6,0.7-0.5,1.6-0.5,2.4c0,5.3,0.1,10.6,0.1,15.9c0,0.6,0,1.4,0.8,1.4
		c0.7,0,0.4-0.9,0.4-1.4c-0.1-3.8-0.3-7.7-0.5-11.5C230.6,93,230.4,90.8,230.3,88.5z M268.6,58.9c-0.3,0.2-0.3,0.6-0.3,0.9
		c0,5.6,0.1,11.2,0.1,16.7c0,0.3,0.1,0.7,0.1,1c0.1,0.3,0.1,0.6,0.5,0.5c0.3,0,0.4-0.3,0.5-0.6c0-0.3,0-0.7,0-1
		c-0.2-5.4-0.4-10.8-0.6-16.2C269,59.8,269.1,59.3,268.6,58.9z M243.6,179.7c0,0-0.1,0-0.1,0c0.3,2.5,0.5,4.9,0.8,7.4
		c0,0.4,0,0.9,0.6,0.8c0.4,0,0.4-0.5,0.4-0.8c0-2.9,0.6-5.7,0.1-8.6c-0.1-0.7-0.3-1.3-0.7-1.8c-0.2-0.2-0.3-0.5-0.6-0.4
		c-0.3,0.1-0.3,0.4-0.3,0.7C243.5,177.9,243.6,178.8,243.6,179.7z M169.3,188.1c0.2,1.6,0.3,3,0.4,4.4c0,0.4,0.2,0.8,0.6,0.8
		c0.5,0.1,0.8-0.2,1-0.7c0.3-1.4,0.7-2.8,0.9-4.3c0.1-1-0.4-2-1.4-2C169.8,186.3,169.4,187.4,169.3,188.1z M302.4,59.2
		c0.4-0.2,1.6,0.5,1.3-0.8c-0.4-1.6-3.7-3.7-5.4-3.6c-0.4,0-0.8,0.1-0.7,0.6C297.7,56.5,301,59.1,302.4,59.2z M251.7,19.8
		c-1.1,0-1.1,0.4-1,0.9c0.2,1.6,3.6,4.2,5.2,4c0.4-0.1,0.5-0.3,0.4-0.7C255.9,22.3,252.9,19.7,251.7,19.8z M253.9,157.4
		c-0.7-2.2-1.5-4.2-3-5.7c-1.2-1.2-2.6-1.3-3.7-0.2c-0.3,0.3-0.8,0.7-0.6,1.2c0.2,0.6,0.8,0.5,1.2,0.5c2.4-0.2,3.8,1.1,4.9,3
		C252.9,156.6,253,157.1,253.9,157.4z M248.9,77.3c-2.3,2.1-2.2,4.5-1.6,7c0.1,0.6,0.4,0.8,0.9,0.4c0.8-0.7,1.5-1.4,1.5-2.6
		C249.6,80.4,249.4,78.9,248.9,77.3z M264.3,53.6c-0.1,1.9,1.3,3.5,3.2,3.6c1.9,0.1,3.4-1.3,3.5-3.1c0.1-2-1.1-3.5-3.1-3.7
		C265.9,50.3,264.4,51.6,264.3,53.6z M176.6,203.3c-0.3,1.8-0.6,3.5,0,5.2c0.2,0.5,0.5,1.1,1.1,1.1c0.6,0,0.7-0.6,0.9-1.1
		C179.5,206.2,177.6,204.9,176.6,203.3z M307.4,58.8c0,0,0.4,0,0.7-0.1c0.5-0.1,1.2-0.1,1.3-0.8c0.1-0.6-0.6-0.7-1-0.9
		c-1.3-0.4-2.6-0.8-3.9-1.2c-0.4-0.1-1.1,0-0.6,0.6C304.7,57.6,305.4,59,307.4,58.8z M246.2,85.7c0-0.4,0-0.7-0.1-0.9
		c-0.1-0.5,0-1.1-0.6-1.2c-0.6-0.1-0.7,0.5-0.9,0.9c-0.2,0.5-0.5,1-0.6,1.5c-0.2,0.7-0.9,1.6,0.1,1.9c0.8,0.3,1.4-0.5,1.8-1.2
		C246.1,86.3,246.1,85.9,246.2,85.7z M173,168.4c0,0.5-0.2,1,0.3,1.3c0.1,0.1,0.4,0,0.6-0.2c0.9-1,1.6-2.1,1-3.5
		c-0.2-0.4-0.3-0.7-0.7-0.8c-0.6,0-0.7,0.4-0.8,0.9C173.3,166.9,173.2,167.7,173,168.4z M181.9,183.2c-0.3-0.7,0.3-1.9-0.9-2
		c-0.7,0-1.5,0.7-1.4,1.5c0.1,0.9,0.7,1.9,1.6,2C182,184.9,181.8,183.9,181.9,183.2z M237.2,94.9c-0.2-0.4,0-1.1-0.6-1.3
		c-0.7-0.2-0.8,0.6-1,1c-0.3,0.5-0.5,1.1-0.7,1.6c-0.1,0.7-0.1,1.4,0.7,1.6c0.7,0.2,0.8-0.6,1-1C236.9,96.3,237.2,95.7,237.2,94.9z
		 M249.5,16.1c0,1.3,1.4,2.6,2.7,2.6c0.7,0,0.7-0.5,0.4-0.9c-0.5-0.8-1.2-1.6-1.8-2.3c-0.2-0.3-0.6-0.6-1-0.3
		C249.5,15.4,249.5,15.7,249.5,16.1z M202.2,67c1-0.1,2-0.7,2.7-1.4c0.2-0.2,0-0.6-0.2-0.7c-1-0.4-1.9-0.2-2.8,0.4
		c-0.1,0.1-0.2,0.1-0.3,0.2c-0.3,0.2-0.9,0.4-0.7,0.9C201.1,67,201.6,67,202.2,67z M245.2,52.3c0.1,0.5-0.3,1.3,0.4,1.5
		c0.8,0.2,1.1-0.6,1.3-1.2c0.3-0.9,0.5-1.8-0.1-2.6c-0.1-0.1-0.4-0.1-0.6-0.1C245.4,50.4,245.2,51.3,245.2,52.3z M264.1,201.6
		c1.7,0.9,3.5,0.5,5.3,0.2c0.4,0,1,0,0.9-0.7c-0.1-0.5-0.7-0.6-1.1-0.5C267.6,201.1,265.8,201.3,264.1,201.6z M247.9,177.7
		c0-0.6,0-1.2-0.6-1.2c-0.5,0-0.7,0.4-0.7,0.9c0,0.5-0.1,1,0,1.5c0.1,0.6-0.2,1.5,0.4,1.6c0.8,0.1,0.5-0.9,0.7-1.4
		C247.7,178.5,247.8,178,247.9,177.7z M167.7,209.6c0.7-1.8,0.7-3.2,0.7-4.6c0-0.3,0-0.6-0.4-0.6c-0.2,0-0.4,0.2-0.4,0.4
		C167.4,206.3,167,207.7,167.7,209.6z M237.5,98.2c-0.6,0.8-1.1,1.5-0.8,2.5c0.2,0.5,0.4,1.2,1,1.1c0.7-0.1,0.5-0.9,0.4-1.4
		C238.1,99.7,238.2,98.9,237.5,98.2z M165.2,181.7c-0.1,0-0.2,0-0.3,0c-0.1,0.9-0.2,1.9-0.3,2.9c0,0.4,0.1,0.8,0.5,0.9
		c0.6,0,0.4-0.5,0.4-0.8C165.5,183.6,165.3,182.6,165.2,181.7z M199.9,64.8c-0.2-0.6-0.8-0.5-1.2-0.4c-0.5,0-1.2-0.3-1.2,0.6
		c0,0.5,0.7,0.6,1.2,0.6C199.1,65.6,199.6,65.4,199.9,64.8z M249.7,137.4c0-0.5-0.1-1-0.7-1.1c-0.4-0.1-0.7,0.1-0.7,0.5
		c0,0.6,0.2,1.1,0.8,1.3C249.6,138.2,249.7,137.8,249.7,137.4z M228.3,70.6c-0.5,0-0.8,0.3-0.8,0.8c0,0.4,0.2,0.7,0.7,0.8
		c0.5,0.1,0.8-0.2,0.9-0.7C229.1,70.9,228.8,70.6,228.3,70.6z M249.5,47.5c-0.6,0.3-1,0.7-1,1.4c0,0.3,0.1,0.8,0.5,0.6
		c0.6-0.3,0.8-0.9,1-1.6C250.1,47.6,249.9,47.4,249.5,47.5z M269.2,80.4c-0.3,1.1-0.6,2.2,0.1,3.6C269.8,82.6,269.7,81.5,269.2,80.4
		z M249.5,160.5c-0.6,0.8-0.6,1.5-0.5,2.4C249.9,162.1,250.2,161.5,249.5,160.5z M251.8,191.3c0-0.4,0-0.8-0.5-0.9
		c-0.4-0.1-0.4,0.4-0.4,0.7c0,0.4,0,0.8,0.4,0.9C251.7,192,251.7,191.6,251.8,191.3z M252.5,172.6c-0.3,0.1-0.5,0.3-0.4,0.6
		c0.1,0.3,0.3,0.6,0.7,0.5c0.3-0.1,0.3-0.4,0.2-0.7C253,172.8,252.9,172.6,252.5,172.6z M204.3,101.1c0-0.4,0-0.8-0.5-1.1
		C203.6,100.5,203.8,100.8,204.3,101.1z"/>
	<path class="st1" d="M319.6,137.2c0,20.4,0,40.8,0,61.2c0,3.8-0.2,4-4,3.7c-10-0.7-20-1.6-30-2c-1.3-0.1-1.9-0.7-2-1.9
		c0-0.5,0-1,0-1.5c0-39.7,0-79.3,0-119c0-2.9,0.3-3.2,3.1-3.4c9.6-0.7,19.2-1.4,28.8-2.2c3.7-0.3,4.1,0,4.1,3.7
		C319.6,96.4,319.6,116.8,319.6,137.2z M318.6,137.4c0-19.9,0-39.7,0-59.6c0-3.5-1-4.3-4.5-4c-8.4,0.6-16.8,1.2-25.2,1.7
		c-3.8,0.2-4.7,1-4.7,4.9c0,4.1,0.2,8.3,0.2,12.4c0,31.3,0,62.7,0,94c0,2.8,0,5.6,0,8.3c0,2.7,0.9,3.6,3.5,3.9
		c2.1,0.2,4.2,0.3,6.3,0.5c6.9,0.5,13.8,1,20.7,1.4c2.6,0.2,3.6-0.8,3.7-3.4c0-0.7,0-1.4,0-2.1C318.6,176,318.6,156.7,318.6,137.4z"
		/>
	<path class="st1" d="M157.8,171.9c0.2,0,0.4,0,0.6,0c-0.5,2.5-0.9,5-1.4,7.5c-1.2,6.7-1.6,13.5-1.6,20.3c0,2-0.1,3.9-0.3,5.9
		c-0.1,1-0.4,2-1.7,2.6c-0.2-1.3,0.4-2.3,0.6-3.3c0.6-4,0.5-8,0.8-12.1c0.4-6.5,1.2-13,2.5-19.4
		C157.3,172.9,157.6,172.4,157.8,171.9z"/>
	<path class="st1" d="M206.7,102.2c4.7,8.6,8.6,17.5,10.7,27.2C214.2,120.2,210.9,111.1,206.7,102.2z"/>
	<path class="st1" d="M16.8,172.4c0.5,0.7,0.4,1.2,0.4,1.8c0,6.1,0.4,12.1,1.2,18.2c0.1,0.4,0.4,1-0.3,1.2c-0.3,0.1-0.5-0.4-0.5-0.7
		c-1.3-6.5-2.1-13.1-1-19.7C16.6,173,16.7,172.8,16.8,172.4z"/>
	<path class="st1" d="M205.1,102.4c1,1.2,1.4,2.5,2,3.8c3.4,7.1,6,14.5,8.4,22c0.1,0.2,0.1,0.4,0.2,0.6c0.1,0.4,0.4,1-0.1,1.2
		c-0.7,0.2-0.7-0.5-0.9-0.9c-0.9-2.8-1.7-5.7-2.6-8.6c-1.8-5.6-4-11.1-6.6-16.5C205.2,103.6,204.8,103.2,205.1,102.4z"/>
	<path class="st1" d="M230.3,88.5c0.1,2.3,0.3,4.5,0.4,6.8c0.2,3.8,0.3,7.7,0.5,11.5c0,0.5,0.3,1.3-0.4,1.4c-0.7,0-0.8-0.8-0.8-1.4
		c-0.1-5.3-0.1-10.6-0.1-15.9C229.8,90.1,229.7,89.2,230.3,88.5z"/>
	<path class="st1" d="M268.6,58.9c0.5,0.4,0.4,0.9,0.4,1.3c0.2,5.4,0.4,10.8,0.6,16.2c0,0.3,0,0.7,0,1c0,0.3-0.2,0.5-0.5,0.6
		c-0.3,0-0.4-0.3-0.5-0.5c-0.1-0.3-0.1-0.6-0.1-1c-0.1-5.6-0.1-11.2-0.1-16.7C268.3,59.5,268.3,59.2,268.6,58.9z"/>
	<path class="st1" d="M243.6,179.7c0-0.9,0-1.7,0-2.6c0-0.3,0-0.6,0.3-0.7c0.3-0.1,0.5,0.2,0.6,0.4c0.4,0.5,0.6,1.1,0.7,1.8
		c0.5,2.9-0.1,5.7-0.1,8.6c0,0.3,0,0.8-0.4,0.8c-0.5,0-0.5-0.5-0.6-0.8c-0.3-2.5-0.5-4.9-0.8-7.4
		C243.5,179.7,243.5,179.7,243.6,179.7z"/>
	<path class="st1" d="M253.9,157.4c-0.9-0.3-1-0.8-1.2-1.2c-1.1-1.9-2.5-3.2-4.9-3c-0.5,0-1.1,0.1-1.2-0.5c-0.2-0.6,0.3-0.9,0.6-1.2
		c1.2-1.1,2.5-1,3.7,0.2C252.5,153.2,253.2,155.2,253.9,157.4z"/>
	<path class="st1" d="M264.3,53.6c0.1-1.9,1.6-3.3,3.6-3.2c1.9,0.1,3.2,1.6,3.1,3.7c-0.1,1.8-1.6,3.2-3.5,3.1
		C265.6,57.1,264.2,55.5,264.3,53.6z M267.6,51.2c-1.4,0-2.5,1.2-2.5,2.6c0,1.4,1.2,2.6,2.6,2.6c1.4,0,2.6-1.2,2.5-2.6
		C270.2,52.3,269,51.1,267.6,51.2z"/>
	<path class="st1" d="M176.6,203.3c1,1.7,2.9,2.9,1.9,5.2c-0.2,0.4-0.3,1.1-0.9,1.1c-0.6,0-0.9-0.6-1.1-1.1
		C176.1,206.8,176.3,205,176.6,203.3z"/>
	<path class="st1" d="M245.1,151.3c0.2-0.5,0.2-1,0.5-1.4c0.9-1.2,2-2.3,3.6-2.1c1.6,0.3,2.4,1.5,3,3.1c-2.5-1.9-4.8-1.8-7,0.5
		C245.2,151.3,245.2,151.3,245.1,151.3z"/>
	<path class="st1" d="M307.4,58.8c-2,0.2-2.7-1.2-3.5-2.3c-0.5-0.6,0.2-0.7,0.6-0.6c1.3,0.4,2.6,0.7,3.9,1.2c0.4,0.2,1.1,0.3,1,0.9
		c-0.1,0.7-0.8,0.7-1.3,0.8C307.8,58.8,307.4,58.8,307.4,58.8z"/>
	<path class="st1" d="M246.2,85.7c0,0.2,0,0.7-0.2,1c-0.4,0.7-1,1.6-1.8,1.2c-1-0.4-0.2-1.3-0.1-1.9c0.1-0.5,0.4-1,0.6-1.5
		c0.2-0.4,0.3-1.1,0.9-0.9c0.6,0.1,0.5,0.8,0.6,1.2C246.1,85,246.1,85.2,246.2,85.7z"/>
	<path class="st1" d="M173,168.4c0.1-0.7,0.2-1.5,0.4-2.3c0.1-0.4,0.2-0.9,0.8-0.9c0.5,0,0.6,0.4,0.7,0.8c0.6,1.5-0.2,2.5-1,3.5
		c-0.1,0.1-0.4,0.2-0.6,0.2C172.9,169.4,173.1,168.9,173,168.4z"/>
	<path class="st1" d="M237.2,94.9c0,0.8-0.2,1.4-0.6,2c-0.2,0.4-0.4,1.2-1,1c-0.7-0.2-0.8-1-0.7-1.6c0.1-0.6,0.4-1.1,0.7-1.6
		c0.2-0.4,0.3-1.2,1-1C237.2,93.8,237,94.6,237.2,94.9z"/>
	<path class="st1" d="M249.5,16.1c0-0.3,0-0.7,0.3-0.9c0.4-0.3,0.7,0,1,0.3c0.6,0.7,1.2,1.5,1.8,2.3c0.3,0.4,0.3,0.9-0.4,0.9
		C250.9,18.7,249.5,17.3,249.5,16.1z"/>
	<path class="st1" d="M202.2,67c-0.6-0.1-1.1-0.1-1.3-0.6c-0.1-0.5,0.4-0.7,0.7-0.9c0.1-0.1,0.2-0.1,0.3-0.2
		c0.9-0.5,1.8-0.8,2.8-0.4c0.3,0.1,0.4,0.4,0.2,0.7C204.1,66.4,203.2,66.9,202.2,67z"/>
	<path class="st1" d="M245.2,52.3c0-1,0.1-1.9,1.1-2.5c0.1-0.1,0.5,0,0.6,0.1c0.5,0.8,0.3,1.8,0.1,2.6c-0.2,0.6-0.5,1.4-1.3,1.2
		C245,53.6,245.3,52.8,245.2,52.3z"/>
	<path class="st1" d="M264.1,201.6c1.7-0.3,3.4-0.4,5.1-0.9c0.4-0.1,1,0,1.1,0.5c0.1,0.6-0.5,0.6-0.9,0.7
		C267.7,202.1,265.9,202.5,264.1,201.6z"/>
	<path class="st1" d="M179.8,212.7c-0.2-0.1-0.4-0.2-0.6-0.3c1.1-2.3,2.3-4.5,3.2-6.9C181.7,208,181.3,210.5,179.8,212.7z"/>
	<path class="st1" d="M247.9,177.7c-0.1,0.4-0.1,0.9-0.3,1.3c-0.2,0.5,0.1,1.5-0.7,1.4c-0.6-0.1-0.4-1-0.4-1.6c-0.1-0.5,0-1,0-1.5
		c0-0.5,0.2-0.9,0.7-0.9C247.9,176.5,247.9,177,247.9,177.7z"/>
	<path class="st1" d="M167.7,209.6c-0.7-1.9-0.3-3.3-0.1-4.7c0-0.2,0.3-0.4,0.4-0.4c0.4,0,0.4,0.3,0.4,0.6
		C168.4,206.4,168.4,207.8,167.7,209.6z"/>
	<path class="st1" d="M180.2,167.3c0.1-0.3,0.2-0.7,0.4-1c1.4,2.4,1.8,5.2,2.5,7.9C181.9,172,181.3,169.5,180.2,167.3z"/>
	<path class="st1" d="M237.5,98.2c0.7,0.7,0.6,1.5,0.7,2.2c0.1,0.5,0.3,1.2-0.4,1.4c-0.6,0.1-0.8-0.6-1-1.1
		C236.4,99.7,236.9,99,237.5,98.2z"/>
	<path class="st1" d="M184.4,165c0.2,0,0.3,0,0.5,0c1,2.1,0.9,4.3,0.9,6.5C185.4,169.3,184.9,167.2,184.4,165z"/>
	<path class="st1" d="M165.2,181.7c0.1,1,0.2,1.9,0.3,2.9c0,0.3,0.2,0.9-0.4,0.8c-0.4,0-0.6-0.5-0.5-0.9c0.1-1,0.2-1.9,0.3-2.9
		C165,181.7,165.1,181.7,165.2,181.7z"/>
	<path class="st1" d="M199.9,64.8c-0.2,0.6-0.8,0.7-1.3,0.7c-0.5,0-1.1-0.1-1.2-0.6c0-0.8,0.8-0.5,1.2-0.6
		C199.1,64.4,199.6,64.2,199.9,64.8z"/>
	<path class="st1" d="M249.7,137.4c0,0.3-0.1,0.7-0.5,0.6c-0.6-0.2-0.8-0.7-0.8-1.3c0-0.4,0.3-0.6,0.7-0.5
		C249.6,136.4,249.7,136.9,249.7,137.4z"/>
	<path class="st1" d="M228.3,70.6c0.5,0.1,0.8,0.4,0.8,0.9c-0.1,0.5-0.4,0.8-0.9,0.7c-0.4-0.1-0.7-0.3-0.7-0.8
		C227.5,70.9,227.8,70.6,228.3,70.6z"/>
	<path class="st1" d="M249.5,47.5c0.4,0,0.6,0.1,0.5,0.4c-0.2,0.6-0.4,1.3-1,1.6c-0.4,0.2-0.5-0.2-0.5-0.6
		C248.5,48.2,248.9,47.8,249.5,47.5z"/>
	<path class="st1" d="M269,86.2c-0.1,2,0.7,4,0.1,6C268.6,90.2,268.6,88.2,269,86.2z"/>
	<path class="st1" d="M115.9,171c0,0.3,0,0.5,0,0.8c-1.3,0-2.6,0-3.9,0c0-0.1,0-0.2,0-0.2C113.3,171.4,114.6,171.2,115.9,171z"/>
	<path class="st1" d="M249.5,160.5c0.7,1,0.4,1.7-0.5,2.4C249,162,248.9,161.3,249.5,160.5z"/>
	<path class="st1" d="M251.8,191.3c-0.1,0.3,0,0.7-0.5,0.7c-0.5-0.1-0.4-0.5-0.4-0.9c0-0.3,0-0.7,0.4-0.7
		C251.7,190.4,251.7,190.9,251.8,191.3z"/>
	<path class="st1" d="M269.3,102.5c0,2.7,0,5.3,0,8C268.9,107.9,268.9,105.2,269.3,102.5z"/>
	<path class="st1" d="M252.5,172.6c0.3,0,0.5,0.2,0.5,0.4c0.1,0.3,0.1,0.6-0.2,0.7c-0.4,0.1-0.6-0.2-0.7-0.5
		C252.1,172.9,252.3,172.7,252.5,172.6z"/>
	<path class="st1" d="M269.3,142.4c0,2.1,0,4.2,0,6.3C268.9,146.7,269,144.5,269.3,142.4z"/>
	<path class="st1" d="M122.7,171.7c1.3-0.3,2.6-0.6,3.9-0.2C125.4,171.9,124.1,171.8,122.7,171.7z"/>
	<path class="st1" d="M252.7,160.7c0.1-0.1,0.2-0.2,0.3-0.3c0.3,0.7,0.7,1.3,0.6,2.3C252.9,162.1,252.9,161.4,252.7,160.7z"/>
	<path class="st1" d="M270.5,101.9c-0.3-1-0.6-1.9-0.2-2.9C270.6,100,270.6,101,270.5,101.9z"/>
	<path class="st1" d="M204.3,101.1c-0.4-0.2-0.7-0.6-0.5-1.1C204.2,100.2,204.2,100.6,204.3,101.1z"/>
	<path class="st1" d="M270.9,108.5c-0.3-0.7-0.5-1.5-0.2-2.3C270.9,106.9,271,107.7,270.9,108.5z"/>
	<path class="st1" d="M19,195.5c-0.2,0.2-0.3,0.4-0.5,0.6c-0.2-0.4-0.6-0.9-0.1-1.2C18.8,194.6,18.9,195.2,19,195.5z"/>
	<path class="st1" d="M270.2,95.4c-0.3-0.8-0.2-1.7-0.2-2.6C270.3,93.7,270.3,94.5,270.2,95.4z"/>
	<path class="st1" d="M269.9,87.9c-0.1-0.5-0.1-1.1-0.2-1.6C269.9,86.8,269.9,87.3,269.9,87.9z"/>
	<path class="st1" d="M159.2,166.2c-0.2,0.4-0.3,0.7-0.5,1.1C158.9,166.9,159.1,166.6,159.2,166.2z"/>
	<path class="st1" d="M206,100.7c0,0-0.1-0.1-0.1-0.1C205.9,100.6,206,100.6,206,100.7L206,100.7z"/>
	<path class="st1" d="M133.8,171.5c0.2,0.1,0.4,0.1,0.6,0.2C134.2,171.7,134,171.6,133.8,171.5z"/>
	<path class="st1" d="M117.8,170.7c-0.2,0.1-0.4,0.1-0.6,0.2C117.4,170.8,117.6,170.7,117.8,170.7z"/>
	<path class="st1" d="M158.3,169.2c-0.1,0.2-0.2,0.4-0.2,0.7C158.2,169.7,158.2,169.5,158.3,169.2z"/>
	<path class="st1" d="M183.7,160.1c-0.1-0.2-0.2-0.4-0.2-0.6C183.5,159.7,183.6,159.9,183.7,160.1z"/>
	<path class="st1" d="M245.3,151.4c-0.2,0.1-0.2,0.1-0.2-0.1C245.2,151.3,245.2,151.3,245.3,151.4z"/>
	<path class="st1" d="M206,100.7C206,100.7,206,100.7,206,100.7C206,100.7,206,100.7,206,100.7z"/>
	<path class="st1" d="M158,170.5c0,0.1,0,0.3,0,0.4C158,170.8,158,170.7,158,170.5z"/>
	<path class="st1" d="M158.6,170.6c0-0.2,0-0.3,0-0.4C158.7,170.3,158.7,170.4,158.6,170.6z"/>
	<path class="st1" d="M119.7,170.4c-0.1,0.1-0.2,0.1-0.3,0.2C119.5,170.5,119.6,170.4,119.7,170.4z"/>
	<path class="st1" d="M158.9,169.6c0-0.1,0-0.3,0.1-0.4C159,169.3,159,169.4,158.9,169.6z"/>
	<path class="st1" d="M158.7,168c0,0.1,0,0.3-0.1,0.4C158.6,168.2,158.6,168.1,158.7,168z"/>
	<path class="st1" d="M158.3,171.9c0-0.1,0-0.3,0-0.4C158.3,171.6,158.3,171.7,158.3,171.9z"/>
	<path class="st1" d="M184.8,164.4c0-0.1,0-0.3,0-0.4C184.8,164.1,184.8,164.3,184.8,164.4z"/>
	<path class="st1" d="M184,163.8c0.1,0.1,0.1,0.2,0.2,0.3C184,163.9,184,163.9,184,163.8z"/>
	<path class="st1" d="M184.6,163c-0.1-0.1-0.1-0.2-0.2-0.3C184.5,162.8,184.5,162.9,184.6,163z"/>
	<path class="st1" d="M183.8,162.7c0,0.1,0,0.3,0,0.4C183.8,162.9,183.8,162.8,183.8,162.7z"/>
	<path class="st1" d="M183.9,160.7c-0.1-0.1-0.1-0.2-0.2-0.3C183.8,160.5,183.9,160.6,183.9,160.7z"/>
	<path class="st1" d="M251.8,159.5c0.1,0.1,0.1,0.1,0.2,0.2C252,159.6,251.9,159.6,251.8,159.5z"/>
	<path class="st1" d="M252.2,157.8c-0.1-0.1-0.1-0.1-0.2-0.2C252.1,157.6,252.2,157.7,252.2,157.8z"/>
	<path class="st1" d="M177.9,214.1c-0.1,0.1-0.1,0.1-0.2,0.2C177.8,214.2,177.8,214.1,177.9,214.1z"/>
	<path class="st1" d="M177.6,214.4c0,0.1-0.1,0.1-0.2,0.2C177.4,214.5,177.5,214.5,177.6,214.4z"/>
	<path class="st1" d="M177.2,214.8c0,0.1-0.1,0.1-0.2,0.2C177.1,214.9,177.2,214.8,177.2,214.8z"/>
	<path class="st1" d="M176.9,215.1c0,0.1-0.1,0.1-0.2,0.2C176.8,215.2,176.8,215.1,176.9,215.1z"/>
	<path class="st1" d="M176.6,215.4c-0.1,0.1-0.1,0.1-0.2,0.2C176.4,215.5,176.5,215.5,176.6,215.4z"/>
	<path class="st1" d="M116.2,157.6c-5.6,1-9.6-3.5-13.8-7.6c-1-0.9-0.6-2,0.9-2.7c2.7-1.4,5.7-2.1,8.8-2.5c9.7-1.1,19.3-2.6,29-3.5
		c4.2-0.4,8.4-0.7,12.6-0.5c0.5,0,1.1,0.1,1.6,0.2c2.1,0.4,2.7,1.5,1.5,3.2c-2.4,3.5-5.2,6.6-8.5,9.2c-1.6,1.2-3.5,1.7-5.5,2
		C134.3,156.4,125.8,157.1,116.2,157.6z M150.2,142.3c0-0.1,0-0.1,0-0.2c-1.5,0.1-2.9,0.2-4.4,0.2c-11.2,0.7-22.4,2.6-33.5,3.8
		c-2.4,0.3-4.8,0.8-7.1,1.8c-1.9,0.8-2,1.2-0.5,2.5c0.8,0.7,1.6,1.3,2.3,2c3.1,3.1,6.7,4,11,3.7c8.5-0.6,17-1.3,25.5-2.3
		c1.5-0.2,2.8-0.7,4-1.7c3.1-2.3,5.5-5.3,7.8-8.3c0.7-1,0.3-1.6-0.7-1.6C153.1,142.2,151.7,142.3,150.2,142.3z"/>
	<path class="st1" d="M318.6,137.4c0,19.3,0,38.6,0,58c0,0.7,0,1.4,0,2.1c-0.1,2.6-1,3.6-3.7,3.4c-6.9-0.4-13.8-0.9-20.7-1.4
		c-2.1-0.2-4.2-0.3-6.3-0.5c-2.7-0.2-3.5-1.1-3.5-3.9c0-2.8,0-5.6,0-8.3c0-31.3,0-62.7,0-94c0-4.1-0.2-8.3-0.2-12.4
		c0-3.8,0.9-4.6,4.7-4.9c8.4-0.5,16.8-1.1,25.2-1.7c3.4-0.3,4.5,0.6,4.5,4C318.6,97.7,318.6,117.5,318.6,137.4z M317.3,158.9
		c0-12.6,0-25.2,0-37.9c0-2.3-0.2-2.5-2.5-2.5c-9,0-18.1,0-27.1,0c-2,0-2.2,0.2-2.2,2.1c0,24.7,0,49.4,0,74.1c0,2.3,0.4,2.8,2.7,3
		c8.6,0.7,17.1,1.2,25.7,1.9c3.1,0.2,3.4-0.1,3.4-3.2C317.3,183.9,317.3,171.4,317.3,158.9z M295.7,89.4
		C295.7,89.4,295.7,89.4,295.7,89.4c1-0.1,2-0.1,2.9-0.2c5.5-0.3,11.1-0.6,16.6-0.9c1.5-0.1,2.1-0.7,2.1-2.2c-0.1-2.1,0-4.1,0-6.2
		c0-2.8-0.1-2.9-2.8-2.7c-8.1,0.5-16.2,1.1-24.2,1.7c-1.5,0.1-2.3,0.8-2.3,2.3c-0.1,2.3-0.1,4.6-0.1,6.8c0,1.3,0.6,1.9,1.9,1.8
		C291.7,89.7,293.7,89.6,295.7,89.4z M301.2,117.3c4.7,0,9.3,0,14,0c1.5,0,2-0.6,2-2c0-6.4,0-12.7,0-19.1c0-1.5-0.6-1.9-2-1.8
		c-9.3,0.5-18.6,1-27.8,1.5c-1.5,0.1-2.1,0.7-2.1,2.2c0,5.7,0.1,11.4,0,17.1c0,1.6,0.6,2.1,2.1,2.1
		C292.1,117.2,296.7,117.3,301.2,117.3z M312.3,89.9C312.3,89.9,312.3,89.9,312.3,89.9c-8.2,0.4-16.5,0.9-24.7,1.3
		c-1.3,0.1-2.2,0.4-2.1,2c0.1,1.7,1.2,1.5,2.3,1.5c5.5-0.3,11.1-0.6,16.6-0.9c3.7-0.2,7.4-0.4,11.1-0.6c1.3-0.1,1.9-0.5,1.9-1.9
		c0-1.5-0.9-1.7-2.1-1.6C314.2,89.7,313.3,89.8,312.3,89.9z M285.4,83.8c0,1.6,0,3.2,0,4.7c0,0.5-0.1,1.2,0.5,1.2
		c0.8,0,0.6-0.8,0.6-1.2c0-2.3,0-4.6,0-6.8c0-2.8,0.9-3.8,3.6-4c7.1-0.5,14.3-1,21.5-1.4c1.4-0.1,2.7-0.2,4.1-0.3
		c0.3,0,0.6,0,0.6-0.4c0-0.4-0.3-0.5-0.7-0.5c-0.5,0-1,0-1.5,0c-2.5,0.2-5,0.4-7.5,0.6c-6.3,0.4-12.6,0.9-18.9,1.3
		c-1.9,0.1-2.5,0.8-2.5,2.7C285.4,80.9,285.4,82.3,285.4,83.8z"/>
	<path class="st1" d="M267.6,51.2c1.4,0,2.6,1.2,2.6,2.6c0,1.4-1.1,2.6-2.5,2.6c-1.4,0-2.6-1.2-2.6-2.6
		C265.1,52.3,266.2,51.2,267.6,51.2z M269,53.7c-0.1-0.7-0.5-1.3-1.3-1.3c-0.8,0-1.2,0.5-1.3,1.2c-0.1,0.8,0.4,1.3,1.2,1.4
		C268.4,55.2,268.8,54.6,269,53.7z"/>
	<path class="st1" d="M285.4,83.8c0-1.4,0-2.8,0-4.2c0.1-1.9,0.6-2.6,2.5-2.7c6.3-0.5,12.6-0.9,18.9-1.3c2.5-0.2,5-0.4,7.5-0.6
		c0.5,0,1,0,1.5,0c0.3,0,0.7,0.1,0.7,0.5c0,0.3-0.4,0.3-0.6,0.4c-1.3,0.1-2.7,0.3-4.1,0.3c-7.2,0.5-14.3,0.9-21.5,1.4
		c-2.7,0.2-3.6,1.2-3.6,4c0,2.3,0,4.6,0,6.8c0,0.5,0.1,1.3-0.6,1.2c-0.6,0-0.5-0.7-0.5-1.2C285.4,86.9,285.4,85.3,285.4,83.8z"/>
	<path class="st1" d="M301.4,115.4c-4.2,0-8.4,0-12.6,0c-1.6,0-2.3-0.6-2.2-2.2c0.1-4.5,0-9,0-13.5c0-1.4,0.5-2.1,2-2.1
		c8.4-0.4,16.7-0.8,25.1-1.2c2.1-0.1,2.4,0.2,2.4,2.3c0,4.8,0,9.6,0,14.3c0,2-0.2,2.3-2.3,2.3C309.6,115.4,305.5,115.4,301.4,115.4
		C301.4,115.4,301.4,115.4,301.4,115.4z M301.2,114.1C301.2,114.1,301.2,114.1,301.2,114.1c3.6-0.1,7.3,0,10.9-0.1
		c2.4,0,2.5-0.2,2.5-2.5c0-3.8,0-7.6,0-11.4c0-2.3-0.2-2.5-2.4-2.4c-7.4,0.3-14.9,0.7-22.3,1c-1.4,0.1-2.1,0.6-2,2.1
		c0.1,3.7,0,7.4,0,11.1c0,1.9,0.3,2.2,2.2,2.2C293.8,114.1,297.5,114.1,301.2,114.1z"/>
	<path class="st1" d="M299.9,111.7c-2.6,0-5.2,0-7.8,0c-2.1,0-2.8-0.7-2.8-2.9c0-1.8,0-3.6,0-5.4c0-1.6,0.8-2.5,2.3-2.6
		c5.5-0.2,11.1-0.4,16.6-0.5c0.7,0,1.7,0.2,1.7,0.7c0.2,2.4,4.1,1.7,3.6,4.7c-0.2,1.5,0,2.9-2.1,2.9c-0.5,0-0.7,0.5-0.8,0.9
		c-0.4,1.5-1.4,1.9-2.8,1.9c-1.3,0-2.6,0-3.9,0c-1.3,0-2.6,0-3.9,0C299.9,111.6,299.9,111.7,299.9,111.7z M299.8,110.4
		C299.8,110.4,299.8,110.4,299.8,110.4c2.6-0.1,5.1-0.1,7.7-0.1c1.3,0,2-0.6,2-2c0-1.6,0-3.2,0-4.7c0-1.4-0.6-2.1-2.1-2
		c-5,0.2-10.1,0.3-15.1,0.4c-1.3,0-1.9,0.7-1.9,1.9c0,1.5,0,2.9,0,4.4c0,1.4,0.7,2.1,2.1,2.1C294.9,110.4,297.3,110.4,299.8,110.4z"
		/>
	<path class="st1" d="M299.8,110.4c-2.4,0-4.9,0-7.3,0c-1.4,0-2.1-0.6-2.1-2.1c0-1.5,0-2.9,0-4.4c0-1.2,0.6-1.9,1.9-1.9
		c5.1-0.1,10.1-0.2,15.1-0.4c1.4,0,2.1,0.6,2.1,2c0,1.6,0,3.2,0,4.7c0,1.4-0.7,2-2,2C304.9,110.4,302.3,110.4,299.8,110.4
		C299.8,110.4,299.8,110.4,299.8,110.4z M291.2,106.1C291.2,106.1,291.2,106.1,291.2,106.1c0,0.7,0,1.4,0,2.1c0,1.1,0.6,1.7,1.7,1.5
		c1.2-0.2,2.3,0,3.5,0c5.5,0.1,5.5,0.1,5.2-5c-0.1-1.8-0.6-2.2-2.4-2.2c-2,0-4.1,0.4-6.1,0.1c-1.2-0.2-1.9,0.4-1.9,1.6
		C291.2,104.9,291.2,105.5,291.2,106.1z M308.9,106.1c0-3.7,0-3.7-3.6-3.7c-3.3,0.1-3.3,0.1-3.3,4.2c0,3.1,0,3.1,3.1,3
		c0.3,0,0.5,0,0.8,0c2.8,0.3,3.1,0,3.1-2.8C308.9,106.6,308.9,106.4,308.9,106.1z"/>
	<path class="st1" d="M291.2,106.1c0-0.6,0-1.2,0-1.8c0-1.2,0.7-1.8,1.9-1.6c2,0.3,4.1-0.1,6.1-0.1c1.9,0,2.4,0.3,2.4,2.2
		c0.2,5.1,0.2,5.2-5.2,5c-1.2,0-2.3-0.2-3.5,0c-1,0.2-1.6-0.5-1.7-1.5C291.2,107.5,291.2,106.8,291.2,106.1
		C291.2,106.1,291.2,106.1,291.2,106.1z M293.5,106.2c-0.3-0.7,0.4-2.1-0.8-2.2c-1,0-0.8,1.3-0.8,2c0,0.8-0.4,2.3,0.8,2.3
		C293.8,108.4,293.3,107,293.5,106.2z M300.8,106.1c-0.5-0.7,0.5-2.3-0.8-2.3c-1,0-0.5,1.5-0.6,2.4c0,0.8-0.4,2.2,0.6,2.2
		C301.1,108.4,300.5,107,300.8,106.1z M295.7,106.2c0.2,0.7-0.3,2.1,0.6,2.1c0.9,0,0.5-1.3,0.5-2.1c0-0.7,0.3-2-0.5-2
		C295.3,104.2,295.9,105.5,295.7,106.2z"/>
	<path class="st1" d="M308.9,106.1c0,0.3,0,0.5,0,0.8c0,2.9-0.3,3.1-3.1,2.8c-0.3,0-0.5-0.1-0.8,0c-3,0.1-3,0.1-3.1-3
		c0-4.2,0-4.2,3.3-4.2C308.9,102.4,308.9,102.4,308.9,106.1z M304.3,106c-0.4-0.7,0.4-2.2-0.7-2.2c-1.2,0-0.6,1.5-0.6,2.3
		c0,0.8-0.5,2.3,0.7,2.3C304.6,108.4,304.1,106.9,304.3,106z M307.9,106.1c-0.3-0.7,0.3-2.3-0.6-2.3c-1.1,0-0.6,1.6-0.6,2.4
		c0,0.7-0.4,2,0.6,2C308.2,108.2,307.6,106.9,307.9,106.1z"/>
	<path class="st1" d="M293.5,106.2c-0.2,0.8,0.3,2.2-0.8,2.2c-1.1,0-0.8-1.5-0.8-2.3c0-0.7-0.2-2.1,0.8-2
		C293.9,104.1,293.3,105.5,293.5,106.2z"/>
	<path class="st1" d="M300.8,106.1c-0.3,0.9,0.3,2.3-0.8,2.3c-1.1,0-0.6-1.4-0.6-2.2c0-0.8-0.4-2.4,0.6-2.4
		C301.3,103.8,300.3,105.4,300.8,106.1z"/>
	<path class="st1" d="M295.7,106.2c0.2-0.7-0.4-2,0.7-2c0.8,0,0.5,1.3,0.5,2c0,0.7,0.4,2.1-0.5,2.1
		C295.3,108.2,295.9,106.9,295.7,106.2z"/>
	<path class="st1" d="M304.3,106c-0.3,0.9,0.3,2.3-0.7,2.3c-1.2,0-0.7-1.5-0.7-2.3c0-0.8-0.5-2.3,0.6-2.3
		C304.7,103.8,304,105.3,304.3,106z"/>
	<path class="st1" d="M307.9,106.1c-0.3,0.8,0.3,2.1-0.6,2.1c-1,0-0.6-1.3-0.6-2c0-0.9-0.5-2.4,0.6-2.4
		C308.2,103.8,307.6,105.4,307.9,106.1z"/>
</g>
</svg>
